<svg width="365" height="566" viewBox="0 0 365 566" fill="none" xmlns="http://www.w3.org/2000/svg">
  <path fill-rule="evenodd" clip-rule="evenodd" d="M160.763 1.02819C160.763 1.5927 161.996 3.85074 163.504 5.96766C174.468 21.774 172.138 42.3786 157.474 58.326C154.047 61.9953 153.773 61.7131 152.677 54.7978C150.895 43.2254 148.154 42.802 143.22 53.3866C137.464 65.8058 132.393 77.9428 131.297 81.3298C129.652 86.8338 129.789 106.027 131.434 110.967C133.078 116.188 138.149 126.208 141.439 131.43C145.139 136.934 145.139 137.781 141.165 138.91C70.8569 158.244 22.7516 208.627 8.63525 277.78C0.823282 316.449 4.38663 349.755 20.2847 385.742C33.8528 416.508 51.1214 437.113 83.4656 460.681C89.3589 464.915 89.2218 464.915 79.7653 467.314C51.5325 474.229 47.558 476.205 46.5987 484.673C46.0504 490.036 45.9134 490.177 39.0608 491.729C33.7158 492.999 29.4672 494.975 18.9141 500.902C14.2544 503.584 8.36114 506.548 5.6201 507.677C-2.87713 511.205 -2.32892 512.193 13.7062 523.06C23.9851 530.116 23.711 528.563 16.3102 539.007C11.3763 545.922 7.12767 560.176 8.90935 564.128C9.73166 566.103 9.86872 566.103 24.2592 562.857C37.6903 559.753 57.5628 556.789 85.5214 553.402C111.835 550.297 121.292 549.027 124.307 547.757C126.774 546.769 127.048 546.91 130.612 548.039C139.794 551.285 207.498 551.003 234.771 547.616C240.39 546.91 240.664 546.91 242.446 548.18C244.639 549.733 243.405 549.591 267.526 551.85C278.217 552.979 289.866 554.108 293.566 554.39C309.327 555.942 330.022 559.47 343.316 562.857C359.351 566.95 358.94 567.091 358.392 560.317C357.981 554.813 356.199 550.297 350.169 539.289C345.235 529.975 345.098 529.41 347.976 527.576C349.21 526.87 350.58 525.6 351.128 524.753C351.539 524.047 354.966 520.66 358.529 517.273C367.163 509.37 367.3 509.652 357.296 506.83C353.321 505.701 349.484 503.866 344.413 500.902C333.997 494.834 330.296 492.999 325.911 491.87C319.195 490.177 319.469 490.318 319.195 485.096C318.784 476.205 314.535 474.088 286.988 467.737C275.887 465.338 275.887 465.197 285.069 458.988C358.392 408.323 382.376 313.061 342.357 231.913C319.743 185.764 274.927 150.341 224.629 138.345C217.64 136.652 217.503 136.511 220.518 133.124C233.675 118.588 239.294 96.5716 234.634 78.9307C232.167 69.1929 217.914 44.3544 213.391 41.5318C210.65 39.8383 210.102 40.8262 209.828 48.1648C209.416 55.7857 208.868 56.068 206.95 49.2939C201.605 30.1005 184.473 8.50796 169.397 1.87496C164.738 -0.100831 160.763 -0.524214 160.763 1.02819Z" fill="#FEFFFF" />
  <path fill-rule="evenodd" clip-rule="evenodd" d="M160.763 1.02819C160.763 1.5927 161.996 3.85074 163.504 5.96766C174.468 21.774 172.138 42.3786 157.474 58.326C154.047 61.9953 153.773 61.7131 152.677 54.7978C150.895 43.2254 148.154 42.802 143.22 53.3866C137.464 65.8058 132.393 77.9428 131.297 81.3298C129.652 86.8338 129.789 106.027 131.434 110.967C133.078 116.188 138.149 126.208 141.439 131.43C145.139 136.934 145.139 137.781 141.165 138.91C70.8569 158.244 22.7516 208.627 8.63525 277.78C0.823282 316.449 4.38663 349.755 20.2847 385.742C33.8528 416.508 51.1214 437.113 83.4656 460.681C89.3589 464.915 89.2218 464.915 79.7653 467.314C51.5325 474.229 47.558 476.205 46.5987 484.673C46.0504 490.036 45.9134 490.177 39.0608 491.729C33.7158 492.999 29.4672 494.975 18.9141 500.902C14.2544 503.584 8.36114 506.548 5.6201 507.677C-2.87713 511.205 -2.32892 512.193 13.7062 523.06C23.9851 530.116 23.711 528.563 16.3102 539.007C11.3763 545.922 7.12767 560.176 8.90935 564.128C9.73166 566.103 9.86872 566.103 24.2592 562.857C37.6903 559.753 57.5628 556.789 85.5214 553.402C111.835 550.297 121.292 549.027 124.307 547.757C126.774 546.769 127.048 546.91 130.612 548.039C139.794 551.285 207.498 551.003 234.771 547.616C240.39 546.91 240.664 546.91 242.446 548.18C244.639 549.733 243.405 549.591 267.526 551.85C278.217 552.979 289.866 554.108 293.566 554.39C309.327 555.942 330.022 559.47 343.316 562.857C359.351 566.95 358.94 567.091 358.392 560.317C357.981 554.813 356.199 550.297 350.169 539.289C345.235 529.975 345.098 529.41 347.976 527.576C349.21 526.87 350.58 525.6 351.128 524.753C351.539 524.047 354.966 520.66 358.529 517.273C367.163 509.37 367.3 509.652 357.296 506.83C353.321 505.701 349.484 503.866 344.413 500.902C333.997 494.834 330.296 492.999 325.911 491.87C319.195 490.177 319.469 490.318 319.195 485.096C318.784 476.205 314.535 474.088 286.988 467.737C275.887 465.338 275.887 465.197 285.069 458.988C358.392 408.323 382.376 313.061 342.357 231.913C319.743 185.764 274.927 150.341 224.629 138.345C217.64 136.652 217.503 136.511 220.518 133.124C233.675 118.588 239.294 96.5716 234.634 78.9307C232.167 69.1929 217.914 44.3544 213.391 41.5318C210.65 39.8383 210.102 40.8262 209.828 48.1648C209.416 55.7857 208.868 56.068 206.95 49.2939C201.605 30.1005 184.473 8.50796 169.397 1.87496C164.738 -0.100831 160.763 -0.524214 160.763 1.02819ZM182.28 20.6449C193.793 34.3343 199.686 47.4592 199.823 59.8784V67.0759L197.219 72.2977C193.655 79.7774 193.793 81.8943 198.178 80.0597C203.112 77.9428 210.787 69.1929 214.213 61.8542C216.543 56.6325 216.817 56.9147 221.751 66.7937C232.852 88.5274 228.467 118.305 212.432 130.866C207.087 135.099 198.726 134.676 201.467 130.442C208.868 118.729 207.635 104.051 198.452 95.3015C177.894 75.5436 150.21 101.229 163.641 127.62C166.108 132.7 165.971 133.124 161.311 133.688C154.185 134.535 153.225 134.112 147.88 127.479C134.586 110.826 132.53 91.2088 141.987 71.7332C145.55 64.6768 145.55 64.6768 147.743 70.7453C150.758 79.2129 152.814 81.0476 154.185 76.2492C155.007 73.2856 157.2 70.0396 161.859 64.5356C173.235 51.5519 178.991 35.4633 177.209 22.1973C176.25 14.1531 176.661 14.0119 182.28 20.6449ZM186.529 95.3015C199.138 102.781 202.701 114.213 196.122 126.067C192.696 132.277 191.6 132.7 180.773 132.7H174.605L172.412 130.442C162.682 119.434 164.875 104.193 177.346 95.866C181.595 93.0434 182.554 93.0434 186.529 95.3015ZM203.797 141.732C246.421 146.954 285.069 168.123 315.358 202.841C335.23 225.562 351.402 265.643 353.869 297.961C357.57 349.19 340.164 396.186 303.434 433.443C293.292 443.746 281.369 452.919 273.009 456.871C271.638 457.576 269.445 458.846 268.075 459.834C265.06 462.092 259.715 461.387 258.481 458.564C258.207 457.859 257.385 457.294 256.699 457.294C256.014 457.294 255.74 457.012 256.014 456.871C256.151 456.588 257.385 456.447 258.755 456.588C260.948 456.588 268.486 453.766 270.816 451.931C271.364 451.508 272.872 450.661 274.105 449.814C278.08 447.556 287.262 440.076 290.962 436.125L294.526 432.456L293.018 430.762C291.785 429.351 291.511 428.645 291.648 425.54L291.785 422.012L289.318 421.165L286.851 420.319L286.988 416.367C286.988 412.698 289.592 408.464 291.922 408.323C292.333 408.323 297.678 405.641 300.419 403.948C301.378 403.524 302.201 402.678 302.612 402.254C302.886 401.831 303.982 400.984 304.805 400.561C311.931 396.609 315.495 389.412 310.013 389.835C308.231 389.976 307.82 388.988 309.053 387.577C310.013 386.73 310.972 386.589 310.424 387.436C310.287 387.859 310.561 388.141 311.109 388.141C312.48 388.141 312.891 386.307 311.794 385.178C310.972 384.19 311.109 383.766 314.398 380.379C327.692 366.69 331.256 339.17 321.388 327.033C318.784 323.928 318.784 323.364 321.114 321.529C323.17 319.977 325.911 314.332 328.378 306.993C333.449 291.328 325.225 269.594 310.698 260.28L307.957 258.586L308.231 252.518C309.327 230.502 295.622 210.885 276.983 207.921C274.242 207.357 271.912 206.933 271.912 206.792C271.775 206.651 271.09 204.675 270.268 202.559C263.415 182.095 236.827 168.264 221.066 176.591C217.228 178.708 216.954 178.708 214.624 175.462C202.153 157.398 171.042 156.551 154.322 173.768L149.799 178.426L143.906 176.309C131.023 171.934 116.358 176.591 104.572 188.728C99.9119 193.385 95.5262 201.006 95.5262 203.829C95.5262 206.369 94.4298 207.357 90.8665 207.78C77.7095 209.333 65.2377 220.482 59.8927 235.582C57.974 241.369 57.2887 251.953 58.7963 255.481C59.8927 258.304 59.6186 258.586 55.6441 260.703C41.5277 268.042 34.8122 286.106 38.6496 306.57C39.3349 310.521 40.0202 316.307 40.1572 319.553C40.2943 322.799 40.7054 327.457 41.2536 329.856C42.213 333.525 42.213 334.936 41.5277 339.594C40.2943 349.614 41.3907 357.799 45.5022 369.089C46.7357 372.194 48.2433 376.851 49.0656 379.533C52.6289 391.246 63.8672 405.077 72.7756 409.028C73.872 409.452 75.3796 411.004 76.339 412.415C77.4354 414.109 78.3947 414.956 79.3541 414.956C80.7246 414.956 81.821 416.226 81.5469 417.778C81.2728 419.19 81.684 419.895 82.5063 419.895C83.6027 419.895 86.2067 422.012 90.8665 426.387C92.237 427.798 93.8816 429.21 94.5669 429.492C96.0744 430.48 94.841 432.738 92.237 433.867C91.1406 434.431 90.7294 434.714 91.4147 434.855C91.9629 434.855 92.374 435.137 92.374 435.419C92.374 435.843 93.0593 436.125 93.8816 436.125C94.978 436.125 95.5262 435.701 95.5262 434.996C95.5262 434.29 95.9374 433.867 96.7597 433.867C97.582 433.867 98.5414 433.585 99.0896 433.302C99.7748 433.02 100.871 433.585 102.379 434.855C103.612 435.843 104.298 436.689 103.886 436.689C103.338 436.689 103.475 437.113 104.161 438.242C105.074 439.747 104.891 440.453 103.612 440.359C103.201 440.359 102.653 439.653 102.653 438.665C102.242 435.137 96.3485 436.266 95.2521 440.218C94.841 441.347 94.978 441.488 96.0744 441.205C97.0338 440.923 97.8561 441.347 98.8155 442.334C99.5007 443.181 100.734 444.31 101.419 444.875C102.105 445.58 102.653 446.568 102.653 447.274C102.653 448.544 104.161 448.967 104.846 447.838C105.12 447.274 105.394 447.415 105.668 447.838C106.079 448.403 106.49 448.262 107.176 447.556C108.272 446.427 108.409 446.427 109.094 447.556C110.191 449.109 109.094 450.52 106.764 450.52C105.257 450.52 105.257 450.661 106.216 452.072C107.45 454.048 109.643 453.907 110.465 451.931C111.013 450.661 111.424 450.379 113.069 450.661C114.165 450.802 115.673 450.943 116.358 450.943C117.043 450.943 117.866 451.649 118.14 452.355C118.688 453.766 118.962 453.766 125.129 453.625C128.556 453.625 132.393 453.766 133.627 454.048L135.682 454.613L132.941 454.754C131.297 454.754 128.693 455.036 126.774 455.459C124.992 455.742 121.429 456.306 118.688 456.588C112.932 457.294 109.231 458.282 106.079 459.834C102.242 461.951 99.2266 461.246 92.0999 456.588C60.578 436.125 44.6799 418.625 27.8225 385.037C6.03126 341.569 5.75715 286.106 27.1373 239.675C57.4258 173.627 131.023 132.841 203.797 141.732ZM187.351 169.535C195.985 170.946 202.701 174.474 208.32 180.825C211.198 184.071 211.198 184.494 207.909 189.716C202.427 198.325 197.904 211.167 195.711 223.728L194.341 231.913L195.848 233.042C199.275 236.006 199.96 235.018 202.427 224.01C207.361 202.7 215.721 187.74 224.355 184.776C237.649 180.119 254.918 188.446 261.77 202.7C265.197 209.756 265.06 210.179 258.755 213.002C244.639 219.353 224.081 239.252 225.863 244.897C226.959 248.425 228.467 247.861 233.538 241.933C249.573 223.728 259.852 217.377 274.242 217.236C288.495 217.236 300.008 232.195 299.871 250.401C299.734 258.304 299.871 258.163 293.429 258.586C281.78 259.574 265.882 266.348 256.425 274.675C252.314 278.062 256.151 281.026 260.948 278.203C286.166 263.949 301.104 262.114 311.657 272.417C323.17 283.425 323.992 303.041 313.576 314.473C310.013 318.424 310.013 318.424 300.556 315.037C288.495 310.521 263.552 310.803 261.222 315.178C259.715 318.142 260.537 318.424 272.597 318.424C296.582 318.424 309.602 323.928 315.221 336.348C322.896 353.283 312.343 375.863 293.566 382.496C288.358 384.331 287.399 384.19 286.029 381.367C280.546 370.359 256.014 351.166 252.04 354.835C250.121 356.67 250.669 357.376 257.111 362.315C266.293 369.513 277.668 381.932 279.861 387.012C288.084 405.924 266.704 428.786 241.898 427.798C228.467 427.375 225.314 423.423 215.858 394.774C211.335 380.944 210.102 377.98 208.32 377.698C205.442 377.133 204.62 381.65 206.538 388.141C211.335 405.359 214.624 414.532 219.147 422.435C221.751 426.81 212.432 435.137 199.138 440.218L193.107 442.617H183.102C167.89 442.476 159.118 439.371 150.621 430.762C145.687 425.681 145.413 424.693 147.743 420.036C149.388 416.649 156.103 395.903 157.474 389.976C159.941 378.686 156.24 373.182 152.677 383.061C149.799 390.823 145.002 405.218 143.494 410.581C139.246 425.117 134.586 428.504 119.647 427.798C98.8155 426.952 80.0394 406.488 84.5621 389.553C85.7955 384.896 94.841 374.734 105.942 365.42C115.399 357.517 116.769 355.118 112.11 354.553C106.627 353.847 84.425 372.335 80.0393 381.226C78.2577 384.754 78.2577 384.754 73.5979 383.343C59.4815 379.109 49.8879 366.408 49.0656 351.025C47.8321 328.303 60.715 318.989 93.1964 318.989C103.749 318.989 105.805 318.565 105.805 316.449C105.805 310.662 78.9429 310.38 62.7708 316.166C54.2736 319.271 53.8624 318.989 48.3803 307.699L45.5022 301.912V294.009C45.5022 265.078 73.1868 257.316 104.161 277.78C107.861 280.179 108.409 280.179 110.328 278.203C112.384 276.086 111.698 274.957 105.668 271.288C90.0441 261.55 84.6991 259.433 73.872 258.727C66.06 258.304 66.4712 258.727 66.06 251.671C64.5525 230.078 80.5876 213.425 99.2266 217.377C109.231 219.494 122.388 229.655 134.449 244.473L137.464 248.143L139.383 247.155C142.809 245.32 142.535 243.627 137.464 236.994C128.419 225.421 116.632 216.107 105.257 211.873C100.597 210.038 100.46 209.756 103.475 203.688C111.15 187.74 130.2 178.99 142.946 185.341C151.443 189.575 158.296 202.559 163.504 223.728C166.245 234.877 167.067 236.006 170.494 233.042C173.646 230.502 166.382 204.252 158.981 191.833C154.459 184.494 154.459 184.212 158.844 179.978C165.149 173.768 171.179 170.805 179.676 169.535C181.458 169.252 182.965 168.97 183.102 168.97C183.377 168.97 185.295 169.111 187.351 169.535ZM134.312 261.691C125.129 264.231 119.922 268.747 121.977 272.84C123.211 275.098 124.855 274.957 130.337 272.417C137.464 269.03 141.987 268.183 148.017 269.171C153.773 270.159 154.87 270.159 155.829 268.747C160.215 262.538 147.058 258.304 134.312 261.691ZM215.584 261.409C207.498 264.231 207.772 271.57 215.858 269.876C223.396 268.183 230.522 269.171 236.553 272.981C240.801 275.663 242.172 275.663 243.679 272.84C247.243 265.784 226.548 257.316 215.584 261.409ZM136.916 286.247C124.17 290.481 119.784 305.017 128.282 314.896C141.027 329.997 164.738 315.743 157.748 297.114C154.733 288.646 144.865 283.425 136.916 286.247ZM218.462 286.388C206.127 291.046 202.975 306.711 212.432 316.166C226.137 330.138 248.339 314.049 240.116 296.267C236.279 287.8 226.685 283.425 218.462 286.388ZM223.533 292.457C226.548 295.279 226.685 298.384 223.807 301.066C219.147 305.158 212.158 300.219 214.899 294.715C217.228 290.199 220.244 289.352 223.533 292.457ZM139.931 292.88C143.906 296.55 140.89 304.17 135.82 303.183C132.119 302.477 129.104 296.973 131.023 294.292C133.49 290.763 136.916 290.199 139.931 292.88ZM160.215 334.795C154.184 341.428 169.123 354.412 182.828 354.412C196.259 354.412 212.295 340.723 205.853 334.654C203.523 332.255 201.33 332.96 199.275 336.912C192.97 349.049 172.001 348.767 165.834 336.348C164.189 332.819 162.408 332.396 160.215 334.795ZM283.699 419.472C282.602 420.46 282.054 419.472 283.013 418.202C283.562 417.543 283.927 417.496 284.11 418.06C284.247 418.343 283.973 419.048 283.699 419.472ZM89.633 429.633C89.9071 430.197 89.633 431.185 89.0848 431.75C88.1254 432.879 88.1254 433.02 89.633 433.02C90.5924 433.02 91.1406 432.738 91.0035 432.456C90.7294 432.032 91.0035 431.468 91.5517 431.044C92.237 430.48 92.237 430.056 91.8258 429.492C90.7294 428.222 89.2218 428.363 89.633 429.633ZM295.485 429.633C294.8 430.197 294.937 431.75 295.622 431.75C295.896 431.75 296.445 431.185 296.856 430.48C297.541 429.21 296.445 428.645 295.485 429.633ZM90.5924 447.556C90.5924 448.403 92.0999 449.25 92.6481 448.685C93.0593 448.262 91.9629 446.709 91.1406 446.709C90.8665 446.709 90.5924 446.992 90.5924 447.556ZM157.611 448.262C160.763 450.379 168.301 451.084 186.529 451.367C196.122 451.367 204.757 451.649 205.579 451.931C207.087 452.355 209.005 452.496 212.706 452.778C224.629 453.625 163.915 454.189 148.017 453.484L144.728 453.342L147.195 452.919C148.428 452.637 149.936 452.496 150.21 452.637C150.621 452.778 151.169 452.637 151.443 452.355C151.581 451.931 152.54 451.649 153.362 451.649C154.322 451.649 155.418 451.367 155.966 450.943C156.651 450.379 156.377 450.379 154.87 450.661C153.773 450.802 152.951 450.661 152.951 450.379C152.951 450.096 153.362 449.814 153.773 449.814C154.322 449.814 154.87 449.391 155.007 449.109C155.281 448.638 155.052 448.544 154.322 448.826C153.499 449.015 152.723 448.685 151.992 447.838L150.758 446.427L153.499 446.851C155.007 447.133 156.926 447.838 157.611 448.262ZM229.7 454.189C229.7 454.895 227.507 454.895 225.863 454.189C224.903 453.766 225.177 453.625 227.096 453.484C228.604 453.484 229.7 453.766 229.7 454.189ZM238.746 455.177C238.883 455.318 238.06 455.318 236.827 455.318C235.593 455.318 234.634 455.036 234.634 454.754C234.634 454.189 238.06 454.613 238.746 455.177ZM203.66 462.516C214.487 463.08 224.629 463.645 226.137 463.786C227.644 463.927 233.812 464.633 239.979 465.338C254.507 467.032 258.207 467.596 266.978 469.713C270.953 470.701 277.257 472.254 281.095 473.1C287.399 474.512 297.404 477.193 307.546 480.157C312.891 481.709 312.891 481.709 312.068 488.201C311.657 491.165 311.109 502.173 310.835 512.616C310.424 523.06 310.013 532.233 309.739 533.08C309.327 534.773 309.053 534.773 302.886 532.938C290.688 529.128 252.451 522.213 234.634 520.66C222.162 519.531 144.317 519.531 132.667 520.66C106.764 523.201 81.684 527.717 64.2784 533.08C54.5477 536.043 54.9588 536.184 54.8218 526.87C54.8218 522.636 54.6847 510.923 54.4106 500.902C54.1365 489.895 54.1365 482.132 54.4106 481.709C56.1923 479.451 96.4856 468.866 110.876 466.891C114.851 466.467 122.251 465.338 127.185 464.633C135.82 463.504 150.484 462.375 164.052 462.092C179.128 461.669 185.295 461.669 203.66 462.516ZM172.824 480.016C172.275 480.58 171.453 482.697 170.768 484.814C168.986 490.036 168.849 489.895 165.971 483.262C163.23 476.77 158.296 478.181 158.296 485.52C158.296 487.354 158.159 490.459 158.022 492.576L157.611 496.386H154.322C151.169 496.386 149.388 495.398 150.21 493.987C150.347 493.705 151.169 493.423 151.855 493.423C157.611 493.282 158.159 488.342 152.54 488.201C148.017 488.06 149.388 484.673 153.91 484.673C156.377 484.673 157.2 480.439 154.87 480.157C146.098 479.451 143.906 480.58 143.769 485.802L143.494 489.894L141.987 487.213C139.794 483.12 137.327 481.85 131.571 481.85C125.952 481.85 125.541 482.274 125.952 487.072C126.089 489.048 126.5 492.435 126.637 494.834C127.322 500.902 126.363 500.197 121.429 491.165C117.592 483.967 117.455 483.685 115.399 483.544C112.384 483.261 112.11 483.685 109.643 493.282C106.765 504.572 107.176 504.29 101.831 499.35L98.2673 496.104L100.734 491.87C103.612 487.213 104.023 485.237 102.105 485.237C99.6378 485.237 97.8561 486.649 95.6633 490.036C93.3334 493.846 92.6481 493.705 92.5111 489.894C92.374 488.06 90.8665 486.931 89.2218 487.354C87.029 487.919 86.8919 489.189 87.8513 495.54C89.633 506.689 89.3589 506.689 83.0545 496.669C78.2577 489.189 76.476 487.919 74.1461 490.6C72.9126 492.294 69.4863 510.64 70.3087 511.769C71.5421 513.463 74.1461 512.334 75.3796 509.652C76.8871 506.265 81.5469 505.277 83.6027 507.959C84.6991 509.511 85.2473 509.652 86.7549 509.37C87.7143 509.088 89.3589 508.664 90.3183 508.523C94.978 507.818 94.841 507.959 94.978 504.431L95.1151 501.326L98.1302 503.866C102.653 507.677 111.15 507.112 112.932 502.878C114.302 499.773 118.688 499.35 120.881 502.031L122.388 504.007L128.83 503.443C137.464 502.596 143.22 499.068 143.22 494.693C143.22 494.269 143.494 494.128 143.906 494.269C144.18 494.552 144.454 495.822 144.454 497.092C144.454 501.326 144.591 501.467 150.484 501.467C153.773 501.467 155.966 501.185 156.24 500.761C156.514 500.338 157.474 500.197 158.707 500.479C161.996 501.185 163.23 500.479 163.23 498.221C163.367 493.14 164.189 492.717 165.834 496.669C168.164 501.89 170.631 501.749 172.275 496.104C172.687 494.834 173.235 493.423 173.372 493.14C173.783 492.294 174.605 494.128 174.742 496.104C174.742 499.773 178.032 501.749 180.087 499.35C180.773 498.503 181.047 498.644 182.006 499.632C183.514 501.326 185.706 500.902 186.666 498.927C188.036 495.963 187.625 481.145 185.981 480.016C182.417 477.334 181.321 479.31 181.321 489.048C181.321 498.927 180.636 499.068 179.539 489.189C178.58 479.733 175.976 476.205 172.824 480.016ZM196.671 480.439C195.574 481.709 195.437 499.632 196.534 500.338C199.138 502.031 201.33 500.338 201.33 496.669C201.33 493.846 201.33 493.705 205.031 493.14C210.513 492.153 212.843 486.225 209.279 482.132C207.224 479.592 198.178 478.463 196.671 480.439ZM212.843 481.427C211.883 483.544 211.472 500.056 212.432 500.902C213.117 501.326 216.132 501.608 221.34 501.749H229.426L230.385 498.927C231.619 494.834 232.03 494.693 232.715 497.798C234.223 504.007 236.827 504.572 239.157 499.35C241.075 494.975 241.761 494.975 241.761 499.209C241.761 502.737 242.583 504.007 244.502 504.007C246.969 504.007 247.243 502.878 247.243 493.282C247.243 483.403 246.832 482.132 244.091 482.132C241.898 482.132 241.075 483.12 239.157 487.213C236.827 492.011 236.416 492.011 234.908 486.507C233.538 481.85 232.852 481.003 230.248 480.862C228.056 480.862 227.644 481.709 226.411 488.342C225.863 491.588 225.314 495.116 225.04 496.104C224.903 497.233 224.492 497.657 223.807 497.515C223.396 497.233 221.888 496.951 220.518 496.669C218.051 496.245 216.817 494.834 218.325 493.987C218.736 493.564 219.832 493.564 220.792 493.705C222.436 494.128 224.355 492.717 224.355 491.165C224.355 489.612 222.436 488.342 220.244 488.342C216.543 488.342 217.64 485.661 221.614 485.237C225.314 484.955 226.411 482.132 223.396 480.862C220.518 479.874 213.528 480.157 212.843 481.427ZM250.669 483.967C249.299 486.366 248.339 499.632 249.436 501.608C254.232 509.935 263.963 506.689 265.334 496.104C265.745 493.14 266.156 489.471 266.43 488.342C266.704 486.366 266.43 485.802 265.471 485.237C262.319 483.544 260.537 485.661 260.537 491.165C260.537 498.08 257.933 502.173 255.329 499.35C254.37 498.503 254.37 497.657 255.055 491.729C255.603 486.649 255.603 484.955 255.055 484.249C254.232 483.261 251.217 483.12 250.669 483.967ZM204.62 486.507C204.62 487.636 204.208 488.06 203.386 488.201C201.879 488.483 201.056 487.072 201.742 485.52C202.29 483.967 204.62 484.673 204.62 486.507ZM268.76 487.354C268.486 488.342 266.567 499.773 266.156 503.443C265.745 507.112 265.882 507.112 275.613 508.382C282.465 509.229 282.602 509.229 283.425 507.818C285.206 505.136 290.414 506.265 291.922 509.652C293.018 512.052 297.541 513.322 297.541 511.205C297.541 510.358 295.074 497.233 294.115 492.294C293.018 486.649 289.318 488.342 283.562 497.092C280.546 501.749 278.765 504.148 278.08 504.007C277.668 503.866 276.161 503.725 274.927 503.443C271.912 503.019 271.775 502.455 272.872 494.975C273.42 491.447 273.694 488.201 273.557 487.636C273.009 486.366 269.171 486.084 268.76 487.354ZM135.957 488.765C138.286 491.87 136.916 497.092 133.901 497.092C132.53 497.092 131.708 494.269 131.708 488.907C131.708 486.507 134.175 486.507 135.957 488.765ZM116.632 494.269C116.632 494.834 116.221 495.257 115.673 495.257C114.851 495.257 114.439 493.987 115.262 493.14C115.81 492.576 116.632 493.282 116.632 494.269ZM46.3246 520.237C46.4616 537.455 46.5987 543.241 47.2839 543.664C47.6951 544.088 52.2178 544.652 57.2887 545.075C62.4967 545.499 67.7047 546.063 68.8011 546.346L70.9939 546.769L69.3493 547.475C68.527 547.757 62.9078 548.463 57.0146 549.027C47.0098 550.015 39.7461 551.003 24.5333 553.402C12.4727 555.378 12.3356 553.684 23.2998 539.995C30.8377 530.539 31.9341 528.846 31.3859 527.576C30.4265 526.023 24.2592 521.507 16.9954 517.273C13.5691 515.439 10.8281 513.604 10.8281 513.322C10.8281 512.616 12.7468 511.064 15.0767 509.935C16.1731 509.229 18.3659 507.818 19.8735 506.406C23.5739 503.302 26.315 501.89 33.4417 499.632C41.2536 497.233 41.5277 497.233 43.9947 497.374H46.1875L46.3246 520.237ZM330.022 499.068C339.479 501.608 341.123 502.455 343.727 505.56C344.961 507.112 347.428 509.229 349.21 510.358C350.991 511.346 352.636 512.475 352.773 512.757C353.184 513.463 345.646 520.096 340.164 523.906C335.915 526.87 334.956 527.999 334.956 529.834C334.956 530.822 342.083 541.124 345.646 545.358C351.676 552.555 352.225 559.753 346.606 556.083C345.372 555.237 342.768 554.39 340.986 554.108C337.834 553.684 330.707 552.132 320.292 549.733L315.632 548.604L317.413 547.475C318.373 546.91 319.195 546.204 319.195 545.922C319.195 545.64 319.332 534.632 319.469 521.507C319.606 508.241 319.743 497.374 319.743 497.374C319.88 496.669 324.129 497.374 330.022 499.068ZM289.866 499.632C290.414 500.62 289.318 501.749 288.495 501.185C287.81 500.761 288.221 499.068 289.044 499.068C289.318 499.068 289.729 499.35 289.866 499.632ZM78.8059 500.197C79.217 500.902 78.1206 501.749 77.2983 501.185C76.613 500.761 77.0242 499.632 77.8465 499.632C78.2577 499.632 78.5318 499.915 78.8059 500.197ZM229.152 529.693C242.172 531.104 240.938 530.539 241.487 535.196C242.172 541.547 241.624 542.253 236.827 542.112C234.634 541.971 230.111 542.535 226.685 543.1C212.843 545.781 209.142 546.063 180.91 545.217C166.382 544.793 153.088 544.229 151.443 543.805C147.606 543.1 140.205 542.112 131.16 541.124L124.17 540.418L124.307 536.043C124.444 533.644 124.718 531.386 125.267 530.963C127.733 528.422 206.675 527.434 229.152 529.693ZM114.439 531.527C114.576 531.951 114.851 534.491 114.988 537.172L115.262 542.112L111.287 541.688C106.49 541.124 106.353 540.983 105.942 537.737C105.668 536.326 105.394 535.338 105.12 535.479C104.983 535.62 104.435 535.196 104.023 534.491C103.338 533.503 103.475 533.221 104.709 532.938C105.394 532.797 107.587 532.233 109.643 531.809C114.302 530.68 114.165 530.68 114.439 531.527ZM259.578 533.644C260.4 533.926 260.4 534.209 259.852 534.914C259.303 535.62 259.44 535.761 260.126 535.761C260.674 535.761 261.222 535.338 261.359 534.773C261.77 533.644 263.552 534.35 263.552 535.62C263.552 536.043 262.593 536.89 261.359 537.313C259.577 538.16 259.303 538.584 259.44 540.277C259.715 542.394 256.562 543.382 252.177 542.676C250.943 542.535 250.669 536.749 251.766 532.938C252.04 532.233 257.248 532.656 259.578 533.644ZM102.379 534.491C102.653 534.914 102.653 535.338 102.516 535.62C101.968 536.043 99.6378 535.196 99.6378 534.491C99.6378 533.644 101.968 533.785 102.379 534.491Z" fill="#096F8E" />
  <path fill-rule="evenodd" clip-rule="evenodd" d="M168.301 148.648C148.976 150.765 121.429 159.232 106.902 167.559C104.16 169.252 100.186 171.51 98.1302 172.639C54.4106 197.619 22.3404 250.683 18.64 303.888C15.4878 348.908 35.4974 401.125 67.1564 430.48C69.4863 432.738 73.7349 436.689 76.476 439.371C79.217 441.911 82.9174 445.157 84.6991 446.568C91.0035 451.225 100.597 457.717 102.379 458.282C103.475 458.705 104.16 459.27 104.16 459.975C104.023 460.822 104.298 460.822 106.216 459.834C109.231 458.282 112.932 457.294 118.688 456.588C121.429 456.306 124.992 455.742 126.774 455.459C128.693 455.036 131.297 454.754 132.941 454.754L135.682 454.612L133.627 454.048C132.393 453.766 128.556 453.625 125.129 453.625C118.962 453.766 118.688 453.766 118.14 452.354C117.866 451.649 117.043 450.943 116.358 450.943C115.673 450.943 114.165 450.802 113.069 450.661C111.424 450.379 111.013 450.661 110.465 451.931C109.643 453.907 107.45 454.048 106.216 452.072C105.257 450.661 105.257 450.52 106.764 450.52C109.094 450.52 110.191 449.108 109.094 447.556C108.409 446.427 108.272 446.427 107.176 447.556C106.49 448.262 106.079 448.403 105.668 447.838C105.394 447.415 105.12 447.274 104.846 447.838C104.16 448.967 102.653 448.544 102.653 447.274C102.653 446.568 102.105 445.58 101.419 444.875C100.734 444.31 99.5007 443.181 98.8154 442.334C97.8561 441.346 97.0338 440.923 96.0744 441.205C94.978 441.488 94.8409 441.346 95.2521 440.217C96.3485 436.266 102.242 435.137 102.653 438.665C102.653 439.653 103.201 440.359 103.612 440.359C104.891 440.453 105.074 439.747 104.16 438.242C103.475 437.113 103.338 436.689 103.886 436.689C104.298 436.689 103.612 435.842 102.379 434.855C100.871 433.584 99.7748 433.02 99.0895 433.302C98.5413 433.584 97.582 433.867 96.7597 433.867C95.9373 433.867 95.5262 434.29 95.5262 434.996C95.5262 435.701 94.978 436.125 93.8816 436.125C93.0593 436.125 92.374 435.843 92.374 435.419C92.374 435.137 91.9628 434.855 91.4146 434.855C90.7294 434.713 91.1405 434.431 92.2369 433.867C94.8409 432.738 96.0744 430.48 94.5668 429.492C93.8816 429.21 92.2369 427.798 90.8664 426.387C86.2066 422.012 83.6027 419.895 82.5062 419.895C81.6839 419.895 81.2728 419.189 81.5469 417.778C81.821 416.226 80.7246 414.956 79.354 414.956C78.3947 414.956 77.4353 414.109 76.3389 412.415C75.3795 411.004 73.872 409.452 72.7756 409.028C63.8672 405.077 52.6289 391.246 49.0656 379.533C48.2432 376.851 46.7357 372.194 45.5022 369.089C41.3906 357.799 40.2942 349.613 41.5277 339.593C42.213 334.936 42.213 333.525 41.2536 329.856C40.7054 327.456 40.2942 322.799 40.1572 319.553C40.0201 316.307 39.3349 310.521 38.6496 306.57C34.8121 286.106 41.5277 268.042 55.644 260.703C59.6186 258.586 59.8927 258.304 58.7962 255.481C57.2887 251.953 57.9739 241.369 59.8927 235.582C65.2377 220.482 77.7094 209.333 90.8664 207.78C94.4298 207.357 95.5262 206.369 95.5262 203.829C95.5262 201.006 99.9118 193.385 104.572 188.728C116.358 176.591 131.023 171.934 143.906 176.309L149.799 178.426L154.322 173.768C171.042 156.551 202.153 157.398 214.624 175.462C216.954 178.708 217.228 178.708 221.066 176.591C236.827 168.264 263.415 182.095 270.267 202.558C271.09 204.675 271.775 206.651 271.912 206.792C271.912 206.933 274.242 207.357 276.983 207.921C295.622 210.885 309.327 230.502 308.231 252.518L307.957 258.586L310.698 260.28C325.225 269.594 333.449 291.328 328.378 306.993C325.911 314.332 323.17 319.977 321.114 321.529C318.784 323.364 318.784 323.928 321.388 327.033C331.256 339.17 327.692 366.69 314.398 380.379C311.109 383.766 310.972 384.19 311.794 385.178C312.891 386.307 312.48 388.141 311.109 388.141C310.561 388.141 310.287 387.859 310.424 387.436C310.972 386.589 310.013 386.73 309.053 387.577C307.82 388.988 308.231 389.976 310.013 389.835C315.495 389.411 311.931 396.609 304.805 400.561C303.982 400.984 302.886 401.831 302.612 402.254C302.201 402.678 301.378 403.524 300.419 403.948C297.678 405.641 292.333 408.323 291.922 408.323C289.592 408.464 286.988 412.698 286.988 416.367L286.851 420.318L289.318 421.165L291.785 422.012L291.648 425.54C291.511 428.645 291.785 429.351 293.018 430.762L294.526 432.455L290.962 436.125C287.262 440.076 278.079 447.556 274.105 449.814C272.872 450.661 271.364 451.508 270.816 451.931C268.486 453.766 260.948 456.588 258.755 456.588C257.385 456.447 256.151 456.588 256.014 456.871C255.74 457.012 256.151 457.294 256.836 457.294C257.522 457.294 258.207 457.717 258.344 458.423C258.755 460.116 260.4 460.681 261.359 459.693C261.77 459.129 264.1 457.858 266.567 456.588C282.739 448.967 316.591 416.085 322.484 402.395C322.621 401.972 324.54 398.867 326.596 395.621C328.515 392.375 331.393 386.589 332.9 382.778C334.408 379.109 336.052 375.299 336.601 374.452C339.068 369.654 344.55 351.589 346.88 340.017C350.306 322.94 349.072 289.634 344.276 273.546C334.682 240.804 317.276 213.002 292.881 190.986C269.034 169.393 242.994 156.269 212.157 150.2C205.442 148.789 176.524 147.942 168.301 148.648ZM244.091 326.045C231.071 330.985 240.938 343.263 255.192 340.017C265.608 337.759 268.623 330.702 260.948 326.61C258.344 325.198 247.243 324.916 244.091 326.045ZM107.587 326.469C101.008 328.021 99.3637 333.807 104.435 337.618C114.302 344.815 133.901 336.771 125.815 328.727C123.074 326.045 114.165 324.916 107.587 326.469ZM283.013 418.202C282.602 418.766 282.328 419.472 282.602 419.754C283.15 420.318 284.384 418.907 284.11 418.06C283.927 417.496 283.562 417.543 283.013 418.202ZM91.8258 429.492C92.2369 430.056 92.2369 430.48 91.5517 431.044C91.0035 431.468 90.7294 432.032 91.0035 432.455C91.1405 432.738 90.5923 433.02 89.6329 433.02C88.1254 433.02 88.1254 432.879 89.0848 431.75C89.633 431.185 89.9071 430.197 89.6329 429.633C89.2218 428.363 90.7294 428.222 91.8258 429.492ZM296.856 430.48C296.17 431.891 295.074 432.173 295.074 430.903C295.074 429.774 295.622 429.21 296.719 429.21C297.267 429.21 297.404 429.492 296.856 430.48ZM92.374 447.556C92.7851 447.979 92.9222 448.544 92.6481 448.685C92.0999 449.25 90.5923 448.403 90.5923 447.556C90.5923 446.427 91.4146 446.427 92.374 447.556ZM151.992 447.838C152.723 448.685 153.499 449.014 154.322 448.826C155.052 448.544 155.281 448.638 155.007 449.108C154.87 449.391 154.322 449.814 153.773 449.814C153.362 449.814 152.951 450.096 152.951 450.379C152.951 450.661 153.773 450.802 154.87 450.661C156.377 450.379 156.651 450.379 155.966 450.943C155.418 451.367 154.322 451.649 153.362 451.649C152.54 451.649 151.58 451.931 151.443 452.354C151.169 452.637 150.621 452.778 150.21 452.637C149.936 452.496 148.428 452.637 147.195 452.919L144.728 453.342L148.017 453.483C156.651 453.907 213.528 453.766 213.802 453.342C213.939 453.06 213.391 452.778 212.706 452.778C209.005 452.496 207.087 452.354 205.579 451.931C204.757 451.649 196.122 451.367 186.529 451.367C168.301 451.084 160.763 450.379 157.611 448.262C156.926 447.838 155.007 447.133 153.499 446.85L150.758 446.427L151.992 447.838ZM225.863 454.189C227.507 454.895 229.837 454.895 229.837 454.189C229.837 453.907 228.604 453.625 227.233 453.625C225.177 453.625 224.903 453.766 225.863 454.189ZM234.634 454.895C234.634 455.177 235.593 455.459 236.827 455.459C239.476 455.459 239.385 455.177 236.553 454.612C235.456 454.33 234.634 454.471 234.634 454.895ZM97.0338 459.693C97.4449 460.116 98.4043 460.54 99.5007 460.681C101.282 461.104 101.282 461.104 99.2266 460.116C96.8967 458.987 96.2114 458.987 97.0338 459.693ZM155.692 468.584C149.388 468.866 139.383 469.854 133.353 470.701C127.322 471.548 120.059 472.536 117.043 472.959C108.135 473.947 94.8409 476.487 88.1254 478.463C84.6991 479.451 78.5317 481.144 74.4202 482.132C57.2887 486.648 57.9739 485.802 57.9739 497.656C57.9739 510.64 56.3293 516.144 54.9588 507.676C54.5476 505.136 54.5476 506.124 54.6847 511.487C54.8217 515.439 54.9588 522.213 54.9588 526.588C54.9588 536.325 54.5476 536.043 64.2783 533.079C81.6839 527.717 106.902 523.201 132.667 520.66C144.454 519.531 222.299 519.531 234.634 520.66C252.451 522.354 290.825 529.128 302.886 532.938C309.19 534.914 309.464 534.914 309.876 533.079C310.013 532.233 310.561 523.201 310.835 513.039C311.109 502.737 311.657 492.717 311.794 490.741C312.205 487.354 312.205 487.213 310.698 487.213C309.876 487.213 307.683 486.648 305.627 485.943C302.475 484.814 293.292 482.274 277.531 478.181C270.268 476.205 257.111 473.806 247.106 472.536C242.72 471.971 235.182 470.983 230.385 470.419C213.665 468.02 183.788 467.314 155.692 468.584ZM178.032 480.58C178.443 481.286 179.265 485.237 179.676 489.189C180.635 499.068 181.458 499.068 181.458 489.189C181.458 479.31 182.417 477.475 186.118 480.015C187.762 481.286 188.173 495.963 186.666 499.068C185.706 501.043 183.651 501.326 182.143 499.773C181.047 498.644 180.773 498.644 180.224 499.35C178.169 501.89 174.742 499.773 174.742 496.104C174.742 494.269 173.92 492.294 173.372 493.281C173.235 493.564 172.824 494.834 172.412 496.245C170.631 501.749 168.164 501.89 165.971 496.669C164.189 492.858 163.504 493.281 163.367 498.221C163.23 500.479 161.996 501.185 158.844 500.62C157.611 500.338 156.651 500.479 156.377 500.902C156.103 501.326 153.773 501.467 150.621 501.467C144.591 501.467 144.591 501.467 144.591 497.092C144.591 495.822 144.317 494.552 143.906 494.41C143.631 494.128 143.357 494.41 143.357 494.834C143.357 499.209 137.601 502.596 128.967 503.443L122.525 504.007L120.881 502.173C118.688 499.35 114.302 499.914 113.069 503.019C111.15 507.253 102.79 507.818 98.2672 504.007L95.2521 501.326L94.978 504.572C94.8409 507.959 94.978 507.818 90.4553 508.664C89.3589 508.806 87.7142 509.088 86.7549 509.37C85.3843 509.793 84.8361 509.511 83.7397 508.1C81.6839 505.418 77.0242 506.406 75.5166 509.652C74.2831 512.334 71.5421 513.463 70.4457 511.91C69.6234 510.64 72.9126 492.435 74.2831 490.741C76.476 488.06 78.3947 489.33 83.0545 496.81C89.3588 506.83 89.77 506.689 87.9883 495.681C86.8919 489.189 87.166 487.919 89.2218 487.495C91.0035 486.931 92.5111 488.06 92.5111 489.894C92.6481 493.846 93.4704 493.846 95.8003 490.177C97.9931 486.648 99.7748 485.378 102.242 485.378C104.023 485.378 103.612 487.354 100.871 492.011L98.2672 496.104L101.968 499.491C107.176 504.431 106.902 504.713 109.78 493.423C112.247 483.826 112.521 483.403 115.399 483.544C117.455 483.826 117.729 484.108 121.566 491.165C126.363 500.338 127.322 500.902 126.774 494.975C125.404 481.003 125.129 481.85 131.708 481.991C137.327 481.991 139.794 483.261 142.124 487.354L143.631 490.036L143.769 485.802C144.043 480.58 146.235 479.451 154.87 480.298C157.2 480.439 156.377 484.673 154.047 484.673C149.388 484.814 148.017 488.06 152.54 488.201C158.296 488.342 157.611 493.423 151.992 493.423C151.306 493.423 150.484 493.705 150.21 494.128C149.525 495.398 151.169 496.386 154.459 496.386H157.611L158.022 492.717C158.296 490.6 158.433 487.354 158.433 485.519C158.433 478.322 163.367 476.911 166.108 483.261C168.849 490.036 169.123 490.036 170.768 484.814C172.824 479.028 175.976 477.052 178.032 480.58ZM209.416 482.132C212.843 486.225 210.65 492.152 205.168 493.14C201.467 493.705 201.33 493.846 201.33 496.669C201.33 500.479 199.275 502.031 196.671 500.338C195.574 499.632 195.574 481.85 196.671 480.439C198.315 478.604 207.224 479.733 209.416 482.132ZM223.396 481.003C226.548 482.132 225.314 484.955 221.614 485.378C217.777 485.802 216.543 488.483 220.381 488.483C222.573 488.483 224.355 489.753 224.355 491.306C224.355 492.858 222.436 494.128 220.792 493.846C219.969 493.564 218.873 493.705 218.325 493.987C216.954 494.975 218.051 496.386 220.655 496.81C222.025 496.951 223.396 497.374 223.944 497.515C224.629 497.798 224.903 497.374 225.177 496.104C225.314 495.116 226 491.729 226.548 488.483C227.644 481.709 228.055 481.003 230.385 481.003C232.852 481.003 233.675 481.991 234.908 486.648C236.416 492.011 236.827 492.152 239.157 487.213C241.624 482.132 244.091 480.721 246.42 483.261C247.654 484.39 247.791 502.031 246.558 503.302C244.365 505.701 241.898 503.584 241.898 499.209C241.898 494.975 241.212 495.116 239.294 499.35C236.827 504.713 234.36 504.007 232.852 497.939C232.03 494.693 231.619 494.975 230.385 498.927L229.563 501.89L221.477 501.749C216.269 501.749 213.117 501.326 212.569 500.902C211.609 500.056 211.883 483.544 212.98 481.427C213.665 480.157 220.655 479.874 223.396 481.003ZM255.192 484.39C255.74 484.955 255.74 486.79 255.192 491.87C254.507 497.798 254.507 498.503 255.329 499.491C258.07 502.173 260.674 498.08 260.674 491.306C260.674 485.802 262.318 483.685 265.471 485.378C266.567 485.943 266.704 486.507 266.43 488.342C266.293 489.612 265.882 493.14 265.471 496.245C264.1 506.689 254.232 510.076 249.573 501.608C248.476 499.632 249.299 486.366 250.669 484.108C251.217 483.12 254.369 483.403 255.192 484.39ZM201.742 485.661C201.193 487.213 202.016 488.483 203.386 488.342C204.345 488.201 204.757 487.636 204.757 486.648C204.757 484.814 202.427 483.967 201.742 485.661ZM273.557 487.636C273.831 488.201 273.557 491.588 273.009 495.116C271.775 502.596 271.912 503.16 274.927 503.584C276.298 503.725 277.668 504.007 278.217 504.148C278.765 504.289 280.683 501.89 283.699 497.233C289.318 488.483 293.018 486.79 294.252 492.294C295.211 497.374 297.541 510.358 297.541 511.205C297.541 513.322 293.155 512.051 292.059 509.652C290.551 506.265 285.206 505.136 283.562 507.818C282.602 509.229 282.602 509.229 275.75 508.382C266.019 507.253 265.882 507.112 266.293 503.584C266.704 499.773 268.486 488.342 268.897 487.354C269.171 486.084 273.146 486.366 273.557 487.636ZM131.845 488.907C131.845 494.41 132.53 497.233 134.038 497.233C137.053 497.233 138.286 491.87 135.957 488.907C134.312 486.507 131.845 486.648 131.845 488.907ZM115.262 493.281C114.576 493.987 114.851 495.257 115.81 495.257C116.358 495.257 116.769 494.834 116.769 494.41C116.769 493.423 115.81 492.717 115.262 493.281ZM288.221 499.914C287.81 501.043 288.907 501.89 289.866 501.044C290.414 500.338 290.003 499.068 289.044 499.068C288.77 499.068 288.495 499.491 288.221 499.914ZM77.1612 500.197C76.613 501.044 77.8465 501.749 78.6688 501.185C79.217 500.761 78.8058 499.632 77.9835 499.632C77.7094 499.632 77.2983 499.914 77.1612 500.197ZM319.469 523.059C319.332 535.337 319.332 545.64 319.332 545.922C319.332 546.204 318.51 546.91 317.55 547.475L315.632 548.604L320.429 549.733C330.845 552.273 337.971 553.684 341.123 554.107C342.905 554.39 345.372 555.378 346.743 556.083C352.362 559.753 351.676 552.555 345.783 545.358C342.22 541.124 335.093 530.821 335.093 529.834C335.093 527.999 336.052 526.87 340.164 523.906C345.92 519.955 353.321 513.463 352.91 512.616C352.636 512.334 351.402 511.487 350.032 510.781C348.798 510.076 346.605 508.523 345.235 507.394C343.042 505.136 342.768 505.136 336.464 504.572C332.078 504.289 328.241 503.584 324.814 502.314L319.606 500.62L319.469 523.059ZM45.2281 501.608C43.7205 502.455 28.3707 505.842 24.3962 506.124C20.6958 506.406 20.1476 506.547 13.1579 511.205C10.2798 513.18 10.4169 513.604 15.4878 516.568C18.0918 517.979 20.9699 519.531 21.7922 520.096C22.6145 520.519 21.244 518.967 18.7771 516.568C16.3101 514.168 14.6655 512.051 14.9396 511.91C16.5842 510.922 35.4974 524.612 36.5938 527.576C38.1014 531.668 18.503 554.39 16.3101 550.862C16.036 550.156 15.7619 550.297 15.4878 551.003C14.2543 554.249 16.3101 554.813 24.5332 553.543C39.8831 551.144 47.0098 550.156 57.1516 549.168C63.0449 548.604 68.664 547.898 69.4863 547.475L70.9939 546.769L68.9381 546.345C67.7046 546.063 62.6337 545.64 57.4257 545.216C52.2178 544.793 47.695 544.087 47.2839 543.805C46.7357 543.241 46.4616 537.878 46.4616 522.072C46.3245 503.019 46.1875 501.044 45.2281 501.608ZM109.78 531.809C107.724 532.374 105.531 532.938 104.709 533.079C103.612 533.362 103.475 533.503 104.16 534.491C104.572 535.196 104.983 535.62 105.257 535.479C105.531 535.338 105.805 536.325 105.942 537.737C106.49 541.124 106.627 541.265 111.424 541.688L115.399 542.112L115.125 537.313C114.713 531.809 114.576 530.821 113.891 530.821C113.617 530.821 111.698 531.386 109.78 531.809ZM251.903 532.938C250.806 536.749 251.08 542.535 252.314 542.676C256.699 543.523 259.715 542.394 259.577 540.277C259.44 538.583 259.577 538.301 261.496 537.454C262.73 536.89 263.689 536.043 263.689 535.62C263.689 534.35 261.907 533.785 261.496 534.914C261.359 535.338 260.674 535.761 260.263 535.761C259.44 535.761 259.44 535.62 259.989 534.914C260.811 533.926 259.852 533.362 255.329 532.797C253.136 532.374 252.04 532.515 251.903 532.938ZM99.7748 534.491C99.7748 535.196 102.105 536.043 102.653 535.62C102.79 535.479 102.79 534.914 102.516 534.632C101.968 533.785 99.7748 533.644 99.7748 534.491Z" fill="#6AADC8" />
  <path fill-rule="evenodd" clip-rule="evenodd" d="M124.63 25.6837C123.533 26.3894 125.452 29.4942 130.66 35.1393C136.142 40.7844 136.553 38.3852 131.482 31.47C126.412 24.6958 126.274 24.5547 124.63 25.6837ZM181.232 25.5426C181.095 25.8249 181.232 28.3652 181.506 31.3288C183.151 47.6996 177.532 58.1431 154.096 83.2638C151.355 86.0864 150.396 85.8041 147.106 81.1469C143.954 76.6308 143.406 77.0542 142.035 85.2396C139.98 97.5177 141.213 108.243 145.736 117.981C147.929 122.638 148.751 123.909 153.822 130.824L156.152 134.07L159.578 133.646C164.238 133.223 164.375 132.941 161.908 127.86C148.614 101.187 176.024 75.5018 196.719 95.4008C205.902 104.151 207.135 118.828 199.734 130.542C196.993 134.775 205.354 135.199 210.699 130.965C227.008 118.263 231.119 88.6267 219.744 66.0462C217.414 61.389 216.866 61.1068 216.181 63.5059C214.673 69.9978 203.024 81.0058 199.46 79.5945C198.912 79.4534 197.679 79.5945 196.582 80.159C192.059 81.9937 191.785 79.8768 195.486 72.397L198.09 67.1753V59.9778C197.953 52.0746 197.267 49.2521 192.882 39.6554C188.359 29.4942 182.877 22.8612 181.232 25.5426ZM233.038 26.6716C232.353 27.5184 230.434 30.1998 228.789 32.599C225.5 37.1151 224.952 38.2441 226.46 38.2441C228.104 38.2441 235.916 28.0829 235.916 25.966C235.916 24.5547 234.134 24.9781 233.038 26.6716ZM244.824 38.9497C235.642 45.7239 231.667 50.0988 233.586 51.369C236.327 53.0625 251.266 41.0666 249.758 38.2441C248.936 36.4094 247.977 36.5506 244.824 38.9497ZM110.925 38.5263C110.239 40.2199 121.478 50.6633 123.945 50.6633C128.33 50.6633 123.533 43.6069 116.27 39.3731C112.706 37.3973 111.336 37.1151 110.925 38.5263ZM98.59 61.2479C96.3971 62.6592 101.331 66.1874 109.417 69.0099C114.625 70.8446 115.721 70.8446 116.681 69.7156C118.325 67.5987 101.194 59.5544 98.59 61.2479ZM259.489 62.0947C256.611 63.2237 247.977 67.7398 246.469 68.8688C245.373 69.8567 245.373 69.9978 246.195 70.9857C247.977 72.6792 264.286 66.1874 264.834 63.5059C265.245 61.2479 263.052 60.6834 259.489 62.0947ZM95.8489 89.3323C90.9151 89.7557 89.8186 91.3081 93.5191 92.296C96.8083 93.2839 108.869 93.7073 110.102 93.0016C114.625 90.4613 105.717 88.2033 95.8489 89.3323ZM259.489 89.1912C250.032 90.6025 249.21 93.425 258.256 93.1428C265.656 93.0016 268.123 92.4371 268.397 90.8847C268.809 88.6267 266.616 88.3444 259.489 89.1912ZM102.839 118.546C95.7119 120.945 94.7525 121.651 95.3007 123.767C96.123 126.59 97.7677 126.59 104.894 123.767C120.244 117.417 118.6 113.042 102.839 118.546ZM246.469 116.993C245.099 120.804 258.941 125.602 264.149 123.062C269.494 120.38 269.083 119.251 262.778 118.828C260.448 118.687 256.748 117.981 254.555 117.276C249.895 115.864 247.017 115.723 246.469 116.993ZM197.953 180.642C198.09 181.206 198.912 183.606 199.734 185.864C200.557 187.981 201.379 191.509 201.653 193.626C202.064 196.589 202.201 197.013 202.612 195.884C202.887 195.178 204.257 192.92 205.491 190.944C209.739 184.452 209.876 185.017 204.805 182.477C198.501 179.372 197.542 179.09 197.953 180.642ZM244.276 194.049C244.276 194.472 244.824 196.448 245.373 198.283C246.058 200.823 246.195 203.222 245.921 208.444L245.647 215.077L242.495 219.029C240.713 221.146 238.657 223.545 237.835 224.392C233.997 228.484 233.86 229.613 237.561 226.226C245.51 219.029 251.266 215.359 260.86 211.408C262.367 210.843 263.189 208.867 261.956 208.867C261.545 208.867 260.448 207.174 259.215 205.198C255.378 198.706 244.276 190.38 244.276 194.049ZM112.706 198.001C109.143 200.541 105.991 203.787 103.387 207.738L101.057 211.267L102.702 211.69C108.047 212.96 120.244 220.863 126.96 227.214L130.249 230.319L127.234 225.662C125.452 223.121 122.711 219.452 121.066 217.617C117.229 213.384 115.721 207.88 116.407 200.682C116.818 195.743 116.544 195.46 112.706 198.001ZM285.118 236.387C285.118 250.218 283.473 253.605 273.194 261.226C269.083 264.19 267.027 266.306 269.22 265.319C278.676 260.944 286.762 258.686 292.793 258.686H295.671L296.356 255.298C297.864 247.96 294.848 236.952 289.778 231.166C285.255 225.944 285.118 226.085 285.118 236.387ZM73.9206 235.117C70.0832 239.351 67.7533 250.5 69.5349 256.145L70.3573 258.544L74.6059 258.968C78.5804 259.391 83.9254 260.52 86.8035 261.508C87.4888 261.79 86.2553 260.379 84.1995 258.262C78.3063 252.758 76.1134 247.536 76.1134 239.492C76.1134 233.847 75.7023 233.141 73.9206 235.117ZM308.143 277.738C308.005 278.302 307.868 280.278 307.868 282.113C307.868 294.109 301.975 302.717 289.641 308.786C287.174 309.915 284.707 311.044 284.021 311.044C281.006 311.044 284.158 312.032 287.996 312.455C291.696 312.737 299.919 315.137 305.539 317.536C306.361 317.818 306.635 317.677 306.635 316.83C306.635 316.124 307.457 314.431 308.417 312.879C316.366 300.883 317.462 291.568 312.254 281.548C309.924 277.173 308.828 276.185 308.143 277.738ZM49.9365 287.193C46.9214 296.084 48.8401 305.54 55.2815 314.29C56.3779 315.842 57.2003 317.112 57.0632 317.395C56.9262 317.536 59.119 316.83 61.86 315.983C64.6011 314.995 68.5756 314.008 70.7684 313.443C75.9764 312.455 76.2505 312.032 72.8242 310.338C63.6417 305.963 52.5405 292.556 52.5405 285.923C52.5405 283.101 51.0329 283.806 49.9365 287.193ZM300.605 331.649C300.605 341.669 297.315 350.701 291.696 356.346C287.448 360.58 279.088 365.096 275.25 365.237C271.001 365.378 271.138 365.801 276.484 371.729C279.225 374.834 282.24 378.221 283.062 379.35L284.707 381.467L288.818 379.773C311.843 370.176 318.833 346.749 303.894 329.673C300.879 326.286 300.605 326.427 300.605 331.649ZM59.119 330.802C48.0178 344.209 50.3477 364.672 64.1899 375.539C67.3421 378.08 68.5756 378.785 74.7429 381.184L77.8951 382.455L78.7174 380.479C79.1286 379.491 82.1437 375.68 85.57 372.152C91.3262 365.943 91.4633 365.66 89.5445 365.943C77.484 368.483 62.4082 352.253 61.1748 335.741C60.7636 329.814 60.4895 329.108 59.119 330.802ZM268.26 377.797C266.342 391.063 246.606 404.47 228.789 404.47H220.703L218.236 402.071C215.221 399.249 215.221 399.39 219.333 409.551C222.759 417.736 223.307 418.724 228.104 421.123C254.555 434.531 289.915 399.954 271.824 378.503L268.672 374.834L268.26 377.797ZM90.2298 379.067C85.0218 384.571 85.1589 398.402 90.3669 406.587C99.7778 421.547 113.255 426.957 130.797 422.817L137.787 420.982L139.294 417.595C140.117 415.761 141.213 412.374 141.898 410.116C142.447 407.858 143.132 405.599 143.406 405.035C144.091 403.624 143.68 403.624 134.635 404.612C118.737 406.164 98.0418 393.604 95.8489 380.902C94.8896 375.68 93.6561 375.257 90.2298 379.067ZM149.436 410.962C148.34 414.349 146.969 418.019 146.558 419.007C145.051 421.97 149.847 427.756 157.522 432.273C172.461 440.881 186.714 441.023 203.024 432.696C214.947 426.627 217.003 422.676 213.028 413.926C209.876 406.87 210.013 407.011 205.628 409.41C188.77 418.865 164.238 418.16 155.604 407.999C151.903 403.765 151.629 403.765 149.436 410.962Z" fill="#ECA315" />
</svg>