<svg width="75" height="75" viewBox="0 0 75 75" fill="none" xmlns="http://www.w3.org/2000/svg">
  <path fill-rule="evenodd" clip-rule="evenodd" d="M37.5413 73.9404C57.6606 73.9404 73.9266 57.6743 73.9266 37.5413C73.9266 17.422 57.6606 1.15598 37.5413 1.15598C17.4221 1.15598 1.156 17.422 1.156 37.5413C1.156 57.6743 17.4221 73.9404 37.5413 73.9404Z" fill="#096F8E" />
  <path fill-rule="evenodd" clip-rule="evenodd" d="M37.5413 69.2477C55.0735 69.2477 69.234 55.0734 69.234 37.5413C69.234 20.023 55.0735 5.84866 37.5413 5.84866C20.0092 5.84866 5.83493 20.023 5.83493 37.5413C5.83493 55.0734 20.0092 69.2477 37.5413 69.2477Z" fill="#6AADC8" />
  <path fill-rule="evenodd" clip-rule="evenodd" d="M23.0918 64.4313C22.6789 64.3625 21.234 63.9083 20.7798 63.5643C20.6835 63.4955 20.3945 63.3303 20.1606 63.179C19.3899 62.7524 17.6285 61.3625 16.9266 60.6331L16.2386 59.945L16.5275 59.6285C16.7753 59.367 16.8165 59.2432 16.789 58.6652L16.7752 58.0047L17.2431 57.8533L17.711 57.6881L17.6835 56.9588C17.6835 56.2707 17.1881 55.4863 16.7477 55.4588C16.6652 55.4588 15.6468 54.9634 15.1101 54.6469C14.9312 54.5643 14.7798 54.4129 14.6973 54.3303C14.6422 54.2478 14.4358 54.0964 14.2707 54.0138C12.9083 53.2845 12.234 51.9496 13.2798 52.0184C13.6239 52.0459 13.6927 51.867 13.4587 51.6056C13.2798 51.4404 13.1009 51.4267 13.1973 51.578C13.2248 51.6606 13.1697 51.7157 13.0734 51.7157C12.812 51.7157 12.7294 51.3716 12.9358 51.1514C13.1009 50.9725 13.0734 50.89 12.4404 50.2707C9.89452 47.7248 9.20645 42.6056 11.1055 40.3487C11.6009 39.7707 11.6009 39.6606 11.1606 39.3303C10.7615 39.0413 10.2386 37.9817 9.77066 36.6193C8.7936 33.7157 10.3624 29.6698 13.1422 27.9358L13.6789 27.6193L13.6239 26.4909C13.4175 22.4037 16.0321 18.7569 19.5964 18.2065C20.133 18.0964 20.5734 18.0276 20.5734 18.0001C20.6009 17.9725 20.7248 17.601 20.8899 17.2019C22.1973 13.4037 27.289 10.8303 30.3028 12.3854C31.0459 12.7707 31.1009 12.7707 31.5413 12.1652C33.922 8.80741 39.8808 8.65603 43.0872 11.8487L43.9541 12.7157L45.0826 12.3303C47.5459 11.5184 50.3532 12.3854 52.6101 14.6423C53.5046 15.4955 54.3441 16.9129 54.3441 17.4496C54.3441 17.9175 54.5505 18.0964 55.2386 18.179C57.7569 18.468 60.1376 20.5459 61.156 23.3533C61.5275 24.4267 61.6652 26.3946 61.3762 27.0414C61.156 27.5643 61.211 27.6193 61.9817 28.0184C64.6789 29.3808 65.9587 32.7386 65.2294 36.5505C65.0918 37.2799 64.9679 38.3533 64.9404 38.9588C64.9129 39.5643 64.8303 40.4313 64.734 40.8716C64.5413 41.5597 64.5413 41.8212 64.6789 42.6881C64.9129 44.5459 64.7064 46.0735 63.922 48.1652C63.6743 48.7432 63.3853 49.6102 63.234 50.1056C62.5459 52.2799 60.3991 54.8533 58.6927 55.5964C58.4863 55.6652 58.1973 55.9542 58.0184 56.2157C57.7982 56.5322 57.6193 56.6973 57.4404 56.6973C57.1789 56.6973 56.9587 56.9313 57.0138 57.2203C57.0688 57.4817 56.9863 57.6056 56.8349 57.6056C56.6285 57.6056 56.1193 58.0047 55.2386 58.8166C54.9633 59.0781 54.6606 59.3395 54.523 59.3946C54.234 59.5735 54.4679 60.0001 54.9633 60.2065C55.1835 60.3166 55.2523 60.3716 55.1285 60.3992C55.0184 60.3992 54.9496 60.4404 54.9496 60.4955C54.9496 60.5781 54.8119 60.6331 54.6606 60.6331C54.4404 60.6331 54.3441 60.5505 54.3441 60.4129C54.3441 60.2891 54.2615 60.2065 54.1101 60.2065C53.945 60.2065 53.7661 60.1514 53.656 60.1102C53.5321 60.0551 53.3119 60.1514 53.023 60.3992C52.789 60.5781 52.6652 60.7294 52.734 60.7294C52.8441 60.7294 52.8165 60.812 52.6927 61.0184C52.5184 61.3028 52.5505 61.4358 52.789 61.4175C52.8716 61.4175 52.9817 61.2799 52.9817 61.101C53.0505 60.4404 54.1789 60.6606 54.3991 61.39C54.4679 61.5964 54.4404 61.6239 54.234 61.5689C54.0551 61.5276 53.8899 61.5964 53.711 61.7891C53.5734 61.9404 53.3395 62.1469 53.2156 62.257C53.078 62.3808 52.9817 62.5735 52.9817 62.6973C52.9817 62.945 52.6927 63.0138 52.5551 62.8074C52.5 62.6973 52.445 62.7248 52.4037 62.8074C52.3211 62.9175 52.2386 62.89 52.1147 62.7524C51.8945 62.5459 51.8808 62.5459 51.7431 62.7524C51.5367 63.0414 51.7431 63.3028 52.1835 63.3028C52.4725 63.3028 52.4725 63.3303 52.2936 63.5918C52.0597 63.9634 51.633 63.9358 51.4817 63.5643C51.3716 63.3303 51.3028 63.2753 50.9863 63.3303C50.7661 63.3579 50.4771 63.3854 50.3532 63.3854C50.2156 63.3854 50.0642 63.5092 50.0092 63.6469C49.9129 63.9083 39.7844 66.7019 23.0505 64.445M36.7569 11.0643C35.1055 11.3258 33.8257 11.9863 32.7523 13.1698C32.2019 13.7753 32.2019 13.8441 32.8211 14.8212C33.8808 16.4175 34.7477 18.812 35.1606 21.1377L35.422 22.6652L35.133 22.8716C34.4725 23.4221 34.3486 23.2432 33.8808 21.1927C32.9312 17.2294 31.3349 14.4496 29.6835 13.8992C27.1376 13.0322 23.8211 14.5872 22.5138 17.2294C21.8532 18.5505 21.8808 18.6193 23.0918 19.1423C25.789 20.3258 29.7248 24.0276 29.3945 25.0735C29.1743 25.734 28.8853 25.6239 27.922 24.523C24.8532 21.1377 22.8853 19.968 20.133 19.9404C17.3945 19.9404 15.1927 22.7203 15.2202 26.1056C15.2477 27.5643 15.2202 27.5505 16.4587 27.6193C18.6881 27.812 21.7294 29.0643 23.5321 30.6193C24.3303 31.2386 23.5872 31.7891 22.6789 31.2661C17.8486 28.6239 14.9863 28.2799 12.9633 30.1927C10.7615 32.2432 10.6101 35.89 12.5918 38.0092C13.2798 38.7524 13.2798 38.7524 15.0964 38.1193C17.3945 37.2799 22.1697 37.3349 22.6239 38.1469C22.9129 38.6973 22.7477 38.7524 20.4358 38.7524C15.8532 38.7524 13.3624 39.7707 12.289 42.0826C10.8165 45.234 12.8395 49.4313 16.4312 50.656C17.422 51.0001 17.6147 50.9725 17.8762 50.4496C18.922 48.3992 23.6147 44.8349 24.3716 45.523C24.7431 45.8533 24.6468 45.9909 23.4083 46.9129C21.6468 48.2478 19.4725 50.5597 19.0459 51.4955C17.4771 55.0184 21.5642 59.2707 26.3257 59.078C28.8853 59.0092 29.4908 58.2661 31.3074 52.9404C32.1743 50.367 32.4083 49.8166 32.7523 49.7615C33.3028 49.6652 33.4541 50.5047 33.0826 51.7157C32.1743 54.9083 31.5413 56.6147 30.6743 58.0872C30.1789 58.8992 31.9542 60.4404 34.5 61.39L35.656 61.8303H37.5688C40.4863 61.8166 42.1652 61.2386 43.789 59.6285C44.7386 58.6927 44.7936 58.5001 44.3395 57.6331C44.023 57.0138 42.7431 53.1469 42.4817 52.0459C42.0138 49.9542 42.7156 48.9221 43.4037 50.7661C43.9541 52.2111 44.8624 54.8808 45.1514 55.8854C45.9771 58.5826 46.8578 59.2157 49.7202 59.078C53.711 58.9267 57.3028 55.1147 56.4358 51.9771C56.2019 51.1102 54.4679 49.2111 52.3486 47.4909C50.5321 46.0184 50.2707 45.5643 51.1652 45.468C52.211 45.3303 56.4633 48.7707 57.3028 50.4221C57.6468 51.0826 57.6468 51.0826 58.5413 50.8212C61.2386 50.023 63.0826 47.6698 63.234 44.8074C63.4679 40.5826 61.0046 38.8487 54.7844 38.8487C52.7615 38.8487 52.3762 38.7799 52.3762 38.3808C52.3762 37.3074 57.5092 37.2524 60.6055 38.3258C62.2431 38.9037 62.3119 38.8487 63.3716 36.7569L63.922 35.6836V34.2111C63.922 28.8303 58.6101 27.3854 52.6927 31.1973C51.9771 31.6377 51.8808 31.6377 51.5092 31.2661C51.1101 30.8808 51.2477 30.6606 52.4037 29.9863C55.3899 28.1698 56.4083 27.7845 58.4863 27.6469C59.9863 27.5643 59.9037 27.6469 59.9863 26.3395C60.2752 22.3212 57.2064 19.2248 53.6285 19.968C51.7156 20.3533 49.1973 22.2386 46.8853 25.0047L46.3074 25.679L45.9496 25.5001C45.289 25.156 45.3441 24.8395 46.3074 23.6147C48.0413 21.4542 50.2982 19.7203 52.4725 18.9358C53.367 18.5918 53.3945 18.5505 52.8165 17.4221C51.3441 14.4496 47.6973 12.8258 45.2615 14.0092C43.6376 14.7936 42.3303 17.2019 41.3257 21.1377C40.8028 23.2157 40.6514 23.4221 39.9908 22.8716C39.3853 22.4037 40.7753 17.5184 42.1927 15.2065C43.0597 13.8441 43.0597 13.8028 42.2202 13.0047C41.0092 11.8487 39.8532 11.2982 38.2294 11.0643C37.8853 11.0092 37.5964 10.968 37.5688 10.968C37.5275 10.968 37.156 10.9955 36.7569 11.0643ZM46.9129 28.1973C48.6743 28.679 49.6652 29.5184 49.2798 30.2753C49.0459 30.6881 48.7294 30.6606 47.6697 30.1927C46.3074 29.5597 45.4404 29.4083 44.2982 29.5872C43.1835 29.7799 42.9771 29.7799 42.7982 29.5184C41.9587 28.3625 44.4771 27.5643 46.9129 28.1973ZM31.3624 28.1423C32.9037 28.679 32.8486 30.0414 31.3074 29.7248C29.8624 29.4083 28.5 29.5872 27.3441 30.3028C26.5321 30.7982 26.2707 30.7982 25.9817 30.2753C25.2936 28.968 29.2569 27.3854 31.3624 28.1423ZM46.4175 32.7661C48.8532 33.5505 49.6927 36.2615 48.0688 38.0918C45.633 40.8991 41.0918 38.2432 42.4266 34.7891C43.0046 33.2065 44.8899 32.2432 46.4175 32.7661ZM30.8119 32.7936C33.1652 33.6606 33.7707 36.5643 31.9542 38.3258C29.3395 40.9267 25.0872 37.9404 26.656 34.6239C27.3991 33.0551 29.2294 32.2432 30.8119 32.7936ZM29.8349 33.9221C29.2569 34.445 29.2294 35.023 29.7798 35.5184C30.6743 36.2753 32.0092 35.367 31.4863 34.3349C31.0459 33.4955 30.4679 33.3441 29.8349 33.9221ZM45.8395 34.0047C45.0826 34.679 45.6606 36.0964 46.6239 35.9175C47.3395 35.7799 47.9175 34.7615 47.5459 34.2661C47.078 33.6056 46.4175 33.4955 45.8395 34.0047ZM41.9587 41.7936C43.1147 43.0184 40.2523 45.4404 37.6239 45.4404C35.0505 45.4404 31.9817 42.8946 33.2202 41.7661C33.6606 41.3258 34.0872 41.4496 34.4725 42.179C35.6835 44.4358 39.7019 44.3946 40.8853 42.0826C41.2019 41.4221 41.5321 41.3395 41.9587 41.7936ZM18.3165 57.5368C18.523 57.7157 18.633 57.5368 18.4542 57.3028C18.3441 57.1744 18.2707 57.1652 18.234 57.2753C18.2064 57.3166 18.2615 57.4542 18.3165 57.5368ZM55.4725 59.4221C55.4175 59.5322 55.4725 59.7111 55.5688 59.8212C55.7615 60.0276 55.7615 60.0551 55.4725 60.0551C55.2798 60.0551 55.1835 60.0001 55.211 59.945C55.2523 59.8625 55.211 59.7661 55.1009 59.6836C54.9633 59.5735 54.9633 59.5047 55.0459 59.3946C55.2523 59.1606 55.5413 59.1881 55.4725 59.4221ZM16.0597 59.4221C16.1973 59.5322 16.1697 59.8212 16.0321 59.8212C15.9771 59.8212 15.8808 59.7111 15.7982 59.5735C15.6606 59.3395 15.8808 59.2432 16.0597 59.4221ZM55.2798 62.7524C55.2798 62.9175 54.9908 63.0689 54.8945 62.9588C54.8119 62.89 55.0184 62.601 55.1835 62.601C55.2386 62.601 55.2798 62.656 55.2798 62.7524Z" fill="#096F8E" />
  <path fill-rule="evenodd" clip-rule="evenodd" d="M36.7569 11.0642C35.1055 11.3257 33.8257 11.9862 32.7523 13.1697C32.2019 13.7752 32.2019 13.844 32.8211 14.8211C33.8808 16.4174 34.7477 18.8119 35.1606 21.1376L35.4221 22.6651L35.1331 22.8716C34.4725 23.422 34.3487 23.2431 33.8808 21.1927C32.9312 17.2294 31.3349 14.4495 29.6835 13.8991C27.1377 13.0321 23.8211 14.5872 22.5138 17.2294C21.8533 18.5505 21.8808 18.6193 23.0918 19.1422C25.789 20.3257 29.7248 24.0275 29.3945 25.0734C29.1744 25.734 28.8854 25.6239 27.9221 24.5229C24.8532 21.1376 22.8854 19.9679 20.1331 19.9404C17.3945 19.9404 15.1927 22.7202 15.2202 26.1055C15.2477 27.5642 15.2202 27.5505 16.4588 27.6193C18.6881 27.8119 21.7294 29.0642 23.5322 30.6193C24.3303 31.2385 23.5872 31.789 22.6789 31.2661C17.8487 28.6239 14.9863 28.2798 12.9633 30.1927C10.7615 32.2431 10.6101 35.8899 12.5918 38.0092C13.2799 38.7523 13.2799 38.7523 15.0964 38.1193C17.3945 37.2798 22.1698 37.3349 22.6239 38.1468C22.9129 38.6973 22.7477 38.7523 20.4358 38.7523C15.8532 38.7523 13.3624 39.7706 12.289 42.0826C10.8166 45.234 12.8395 49.4312 16.4312 50.656C17.4221 51 17.6147 50.9725 17.8762 50.4496C18.9221 48.3991 23.6147 44.8349 24.3716 45.5229C24.7432 45.8532 24.6468 45.9908 23.4083 46.9129C21.6468 48.2477 19.4725 50.5596 19.0459 51.4954C17.4771 55.0184 21.5643 59.2706 26.3257 59.078C28.8854 59.0092 29.4909 58.2661 31.3074 52.9404C32.1744 50.367 32.4083 49.8165 32.7523 49.7615C33.3028 49.6651 33.4542 50.5046 33.0826 51.7156C32.1744 54.9083 31.5413 56.6147 30.6744 58.0872C30.1789 58.8991 31.9542 60.4404 34.5 61.3899L35.656 61.8303H37.5688C40.4863 61.8165 42.1652 61.2385 43.789 59.6284C44.7386 58.6927 44.7936 58.5 44.3395 57.633C44.023 57.0138 42.7432 53.1468 42.4817 52.0459C42.0138 49.9541 42.7156 48.922 43.4037 50.7661C43.9542 52.211 44.8624 54.8807 45.1514 55.8853C45.9771 58.5826 46.8578 59.2156 49.7202 59.078C53.711 58.9266 57.3028 55.1147 56.4358 51.9771C56.2019 51.1101 54.4679 49.211 52.3487 47.4908C50.5321 46.0184 50.2707 45.5642 51.1652 45.4679C52.211 45.3303 56.4633 48.7706 57.3028 50.422C57.6468 51.0826 57.6468 51.0826 58.5413 50.8211C61.2386 50.0229 63.0826 47.6697 63.234 44.8073C63.4679 40.5826 61.0046 38.8486 54.7844 38.8486C52.7615 38.8486 52.3762 38.7798 52.3762 38.3807C52.3762 37.3073 57.5092 37.2523 60.6055 38.3257C62.2432 38.9037 62.312 38.8486 63.3716 36.7569L63.9221 35.6835V34.211C63.9221 28.8303 58.6101 27.3853 52.6927 31.1973C51.9771 31.6376 51.8808 31.6376 51.5092 31.2661C51.1101 30.8807 51.2477 30.6606 52.4037 29.9862C55.3899 28.1697 56.4083 27.7844 58.4863 27.6468C59.9863 27.5642 59.9037 27.6468 59.9863 26.3395C60.2753 22.3211 57.2065 19.2248 53.6285 19.9679C51.7156 20.3532 49.1973 22.2385 46.8854 25.0046L46.3074 25.6789L45.9496 25.5C45.289 25.156 45.3441 24.8395 46.3074 23.6147C48.0413 21.4541 50.2982 19.7202 52.4725 18.9358C53.367 18.5918 53.3945 18.5505 52.8166 17.422C51.3441 14.4495 47.6973 12.8257 45.2615 14.0092C43.6377 14.7936 42.3303 17.2018 41.3257 21.1376C40.8028 23.2156 40.6514 23.422 39.9909 22.8716C39.3854 22.4037 40.7753 17.5184 42.1927 15.2064C43.0597 13.844 43.0597 13.8028 42.2202 13.0046C41.0092 11.8486 39.8532 11.2982 38.2294 11.0642C37.8854 11.0092 37.5964 10.9679 37.5688 10.9679C37.5276 10.9679 37.156 10.9954 36.7569 11.0642ZM46.9129 28.1973C48.6744 28.6789 49.6652 29.5184 49.2799 30.2752C49.0459 30.6881 48.7294 30.6606 47.6698 30.1927C46.3074 29.5596 45.4404 29.4083 44.2982 29.5872C43.1835 29.7798 42.9771 29.7798 42.7982 29.5184C41.9588 28.3624 44.4771 27.5642 46.9129 28.1973ZM31.3624 28.1422C32.9037 28.6789 32.8487 30.0413 31.3074 29.7248C29.8624 29.4083 28.5 29.5872 27.3441 30.3028C26.5322 30.7982 26.2707 30.7982 25.9817 30.2752C25.2936 28.9679 29.2569 27.3853 31.3624 28.1422ZM46.4175 32.7661C48.8533 33.5505 49.6927 36.2615 48.0688 38.0917C45.6331 40.8991 41.0918 38.2431 42.4266 34.789C43.0046 33.2064 44.8899 32.2431 46.4175 32.7661ZM30.812 32.7936C33.1652 33.6606 33.7707 36.5642 31.9542 38.3257C29.3395 40.9266 25.0872 37.9404 26.656 34.6239C27.3991 33.0551 29.2294 32.2431 30.812 32.7936ZM29.8349 33.922C29.2569 34.445 29.2294 35.0229 29.7799 35.5184C30.6744 36.2752 32.0092 35.367 31.4863 34.3349C31.0459 33.4954 30.4679 33.344 29.8349 33.922ZM45.8395 34.0046C45.0826 34.6789 45.6606 36.0963 46.6239 35.9174C47.3395 35.7798 47.9175 34.7615 47.5459 34.2661C47.078 33.6055 46.4175 33.4954 45.8395 34.0046ZM41.9588 41.7936C43.1147 43.0184 40.2523 45.4404 37.6239 45.4404C35.0505 45.4404 31.9817 42.8945 33.2202 41.7661C33.6606 41.3257 34.0872 41.4495 34.4725 42.1789C35.6835 44.4358 39.7019 44.3945 40.8854 42.0826C41.2019 41.422 41.5321 41.3395 41.9588 41.7936Z" fill="#FEFFFF" />
</svg>