<svg width="372" height="372" viewBox="0 0 372 372" fill="none" xmlns="http://www.w3.org/2000/svg">
<g clip-path="url(#clip0_266_1371)">
<circle cx="186" cy="186" r="186" fill="url(#paint0_linear_266_1371)"/>
<path d="M186 341C271.604 341 341 271.604 341 186C341 100.396 271.604 31 186 31C100.396 31 31 100.396 31 186C31 271.604 100.396 341 186 341Z" fill="#F7F700"/>
<path fill-rule="evenodd" clip-rule="evenodd" d="M75.4417 131.817C73.0375 132.024 72.4192 132.367 70.3586 134.359C66.3747 138.206 66.3747 137.931 66.4433 158.744V175.368L67.1302 177.978C68.5726 183.474 69.9467 185.122 75.9227 189.038C82.7918 193.64 86.9135 195.975 91.5157 197.899C99.8963 201.402 108.139 208.409 113.909 216.926C119.816 225.65 125.793 243.785 123.594 246.532C120.641 250.31 115.627 244.884 113.085 234.992C109.101 219.262 103.88 213.286 86.6385 204.699C72.4192 197.555 68.7103 197.83 66.9929 206.004C66.1683 209.851 66.306 236.091 67.1302 240.144C69.3285 250.86 74.6176 257.935 86.5012 265.766C91.5843 269.2 95.9806 270.437 102.85 270.437L107.933 270.368L111.093 269.338C119.748 266.316 124.625 268.651 129.434 278.131C130.601 280.466 131.7 282.801 131.838 283.145C132.525 285.549 135.547 290.701 137.264 292.625C143.996 299.906 168.725 313.919 174.839 313.85C179.304 313.85 182.395 310.553 182.807 305.332C182.944 303.89 183.219 302.104 183.356 301.348C183.563 300.386 183.631 294.822 183.563 282.939L183.494 265.903L182.669 263.705C180.334 257.111 177.174 254.363 168.657 251.478C155.811 247.219 142.828 239.114 137.539 232.107C131.013 223.452 123.869 206.829 122.77 197.487C122.633 196.181 122.358 194.396 122.221 193.571C121.809 190.961 121.878 181.962 122.358 179.009C123.045 175.093 124.144 169.392 124.419 168.636C124.9 167.4 124.625 166.301 123.045 163.141C122.152 161.355 121.122 158.882 120.71 157.646C119.198 153.181 116.382 149.815 112.054 147.41C110.612 146.655 108.963 145.693 108.345 145.35C106.559 144.182 86.1575 134.153 83.4101 133.054C80.5939 131.955 78.3269 131.611 75.4417 131.817Z" fill="#FFAE00"/>
<path fill-rule="evenodd" clip-rule="evenodd" d="M297.866 133.123C296.766 133.26 293.538 134.771 291.615 136.007C290.721 136.557 289.005 137.519 287.768 138.206C286.532 138.824 284.883 139.717 284.059 140.266C283.303 140.747 281.586 141.709 280.349 142.327C279.113 142.945 277.739 143.701 277.327 143.976C276.915 144.25 275.128 145.281 273.343 146.243C266.13 150.089 261.047 153.249 259.398 154.76C256.651 157.302 254.865 163.415 255.827 166.85C256.307 168.567 257.269 172.826 258.093 177.36C258.711 180.451 258.986 189.861 258.574 192.953C258.368 194.12 258.093 196.044 257.956 197.212C257.819 198.379 257.543 200.097 257.406 200.99C256.513 206.142 262.489 208.408 269.153 205.317C270.252 204.836 271.419 204.356 271.763 204.218C274.785 203.325 287.63 196.319 293.332 192.472C305.628 184.298 305.49 184.71 305.422 157.508C305.422 138.412 305.353 137.45 304.117 134.908C303.43 133.397 300.75 132.642 297.866 133.123ZM297.66 199.822C296.286 200.234 295.393 200.715 291.065 203.257C282.479 208.408 276.365 211.568 270.801 213.972L267.779 215.209L263.52 215.277C259.261 215.277 259.192 215.277 257.338 214.385C253.972 212.736 253.903 212.805 251.155 218.437C250.056 220.636 248.476 223.452 247.652 224.688C245.797 227.573 245.797 227.711 247.995 229.428C252.873 233.343 254.452 236.297 255.964 245.158C256.444 248.044 256.582 259.446 256.101 261.713C255.552 264.392 255.483 270.162 256.032 272.291C258.024 281.359 263.039 281.977 275.335 274.833C296.766 262.4 299.445 260.545 302.056 256.081C304.529 251.89 304.529 251.684 304.735 242.96C304.872 238.426 305.078 234.855 305.216 234.305C305.765 232.794 305.628 211.912 305.147 209.576C304.872 208.546 304.735 206.691 304.735 205.317C304.666 200.234 302.262 198.311 297.66 199.822ZM236.73 237.808C236.249 238.015 235.219 238.77 234.394 239.526C227.525 245.708 215.573 251.753 205.819 253.951C200.53 255.119 195.996 262.194 193.935 272.566L193.18 276.07L193.317 291.182L193.385 306.294L194.279 308.08C197.301 314.468 204.789 315.018 217.634 309.935C233.089 303.821 243.393 293.517 245.454 282.183C245.66 281.222 245.935 279.504 246.141 278.336C246.828 274.696 246.69 246.876 245.935 244.266C244.492 239.045 240.439 236.16 236.73 237.808Z" fill="#F79800"/>
<path fill-rule="evenodd" clip-rule="evenodd" d="M181.158 62.5761C174.495 64.4308 170.717 66.0104 158.559 72.0554C144.821 78.856 144.065 79.4742 144.408 84.42C144.683 89.4345 145.851 90.2586 163.711 99.1884C184.524 109.63 185.761 109.904 195.515 107.844C205.819 105.646 228.487 93.8994 230.822 89.4345C232.334 86.6866 231.029 82.634 227.594 79.3369C224.297 76.1767 203.277 65.7359 196.065 63.6748C190.02 61.8892 184.936 61.5456 181.158 62.5761ZM124.831 91.9074C124.351 92.0447 122.908 92.3193 121.74 92.457C116.451 93.2125 107.658 97.0592 98.3849 102.692C81.4868 112.858 78.6021 117.598 85.2649 124.123C91.3785 130.1 119.13 143.289 125.656 143.289C131.288 143.289 140.974 139.923 144.821 136.557C150.385 131.748 161.444 125.017 166.046 123.574C167.008 123.299 170.03 120.208 170.786 118.766C172.755 114.873 170.42 111.255 163.779 107.912C161.787 106.882 159.589 105.646 158.765 105.165C158.009 104.684 152.17 101.661 145.851 98.5702C132.456 91.9074 129.228 90.8769 124.831 91.9074ZM252.323 91.9074C252.254 91.976 250.949 92.1133 249.438 92.2506C243.324 92.9375 232.402 96.9219 225.808 100.974C224.915 101.593 223.335 102.348 222.305 102.829C218.87 104.272 212.413 108.393 210.215 110.66C205.888 114.988 207.673 121.239 213.924 123.712C219.282 125.772 225.602 129.413 232.677 134.427C237.898 138.137 249.369 142.327 254.246 142.327C258.299 142.327 265.306 139.579 280.006 132.229C295.324 124.536 296.904 123.437 297.728 119.59C298.69 115.262 295.667 111.278 287.15 105.439C285.775 104.547 275.06 99.1198 273.823 98.7766C273.48 98.6388 272.312 98.1583 271.213 97.6774C264.962 94.7922 253.01 91.1514 252.323 91.9074Z" fill="#F7D000"/>
<path fill-rule="evenodd" clip-rule="evenodd" d="M184.254 130.369C183.944 130.493 182.829 130.617 181.777 130.741C168.771 132.042 153.225 140.465 145.421 150.436C138.113 159.726 135.388 165.053 132.725 175.334C124.922 205.867 144.616 238.692 175.211 246.062C181.715 247.61 182.272 247.672 189.89 247.672C197.446 247.672 197.942 247.61 204.506 246.062C227.174 240.736 244.95 220.917 248.17 197.506C248.356 195.957 248.604 194.038 248.727 193.294C248.975 191.56 248.975 186.11 248.727 184.376C248.604 183.633 248.418 182.022 248.232 180.784C245.073 156.753 225.935 136.129 202.525 131.484C196.95 130.369 186.298 129.75 184.254 130.369ZM199.304 145.853C200.419 146.039 202.772 146.534 204.506 146.844C216.708 149.135 229.466 156.753 236.278 165.796C253.868 189.207 241.791 219.369 210.7 229.525C205.931 231.074 201.41 232.065 197.942 232.313C196.641 232.375 195.216 232.56 194.721 232.684C193.606 232.994 186.917 232.994 185.74 232.684C185.245 232.56 183.511 232.313 181.9 232.189C161.401 230.517 141.086 215.838 136.999 199.735C135.264 192.861 134.893 188.897 135.636 185.305C135.822 184.314 136.008 182.952 136.132 182.27C136.937 175.891 143.316 164.495 148.332 160.531C149.199 159.788 150.5 158.735 151.181 158.116C154.34 155.391 162.639 150.746 167.222 149.073C169.638 148.206 177.379 146.224 178.432 146.224C178.866 146.224 179.857 146.039 180.6 145.853C182.644 145.357 196.641 145.357 199.304 145.853ZM201.534 150.498C199.18 150.994 198.623 151.241 197.818 151.922C196.393 153.223 196.331 156.196 197.756 156.32C199.056 156.505 202.215 155.638 203.639 154.771C207.417 152.48 205.993 149.445 201.534 150.498ZM209.957 152.418C209.399 152.604 209.214 152.975 208.284 155.143C207.603 156.691 207.108 157.187 205.869 157.621C205.374 157.806 203.763 158.364 202.277 158.921C197.26 160.717 197.384 160.717 196.517 158.921C196.083 158.054 195.774 157.868 194.164 157.497C193.792 157.435 193.172 156.939 192.615 156.134C190.757 153.471 187.722 155.824 188.899 159.107C189.394 160.469 189.394 161.956 188.837 163.256C188.527 164.123 188.466 164.619 188.713 165.672C189.147 168.087 188.342 169.078 186.484 168.459C185.307 168.025 185.493 168.025 181.962 169.388C179.795 170.255 179.051 170.75 178.37 171.865C178.061 172.361 177.379 172.98 176.884 173.228C175.645 173.847 175.583 174.033 176.265 176.077C177.256 178.926 176.946 180.041 174.964 181.527C173.106 182.828 172.301 182.89 171.062 181.836C168.771 179.855 167.408 181.155 169.452 183.447C170.814 185.057 171.929 187.968 171.929 190.074C171.929 190.858 172.136 191.601 172.549 192.303C172.858 192.923 173.478 194.1 173.911 194.967C174.84 196.886 175.521 197.258 177.689 197.258C179.051 197.258 179.547 197.382 180.786 198.063C182.024 198.745 182.52 198.868 184.935 198.992C186.67 199.116 187.97 199.302 188.466 199.611C188.961 199.859 189.89 199.983 190.943 199.983C192.863 199.983 193.606 200.355 192.987 201.098C192.367 201.841 191.48 202.006 190.324 201.594C189.394 201.222 189.209 201.222 188.218 201.594C187.227 201.903 186.917 201.903 185.988 201.594C185.431 201.408 183.511 200.974 181.715 200.726C174.283 199.55 171.124 198.063 169.08 194.843C164.187 187.349 163.94 186.853 165.241 185.676C166.851 184.252 166.169 177.935 164.311 176.634C163.444 176.015 163.135 175.519 162.701 174.404C161.524 171.06 159.419 171.122 156.755 174.652C153.845 178.43 153.721 178.926 154.34 182.146C154.774 184.252 153.597 185.243 152.172 184.004C151.181 183.199 150.748 181.96 149.819 177.811C149.014 173.785 148.58 172.98 147.342 172.609C146.846 172.485 146.164 172.113 145.855 171.803C143.687 169.759 140.343 176.386 138.856 185.49C137.742 192.179 140.591 202.708 145.112 208.592C148.456 212.989 149.509 214.166 150.438 214.971C150.996 215.405 152.048 216.272 152.73 216.829C161.896 224.261 173.478 228.72 185.431 229.34C193.978 229.835 204.692 228.658 206.674 226.987L207.231 226.491L206.303 225.624C205.807 225.19 204.692 224.571 203.887 224.261C203.082 224.014 201.843 223.332 201.162 222.837C198.561 221.103 197.942 220.979 194.164 221.908C191.872 222.465 190.2 222.713 186.05 223.209C184.254 223.394 183.449 222.837 182.954 221.103C182.706 220.298 182.148 218.935 181.653 218.006C179.671 214.042 180.6 211.627 184.316 210.883C185.059 210.76 185.988 210.574 186.422 210.45C186.855 210.388 187.599 209.769 188.527 208.84C190.943 206.177 192.553 205.186 194.226 205.186C195.526 205.186 195.774 205.124 197.074 204.071C199.242 202.399 203.887 202.894 203.887 204.752C203.887 207.167 207.17 208.097 207.789 205.867C208.904 202.213 208.842 201.717 207.17 200.85C205.931 200.231 205.374 199.673 204.568 198.311C203.763 196.824 199.923 195.524 195.96 195.4C193.854 195.338 193.606 195.276 192.987 194.657L192.367 194.038L193.296 193.232C194.04 192.675 194.226 192.365 194.226 191.622C194.226 190.755 194.845 190.26 195.216 190.817C195.464 191.189 195.464 191.436 195.093 192.737C194.659 194.223 196.455 194.657 197.384 193.294C198.561 191.622 199.861 191.374 201.658 192.551C202.401 193.046 202.937 193.253 203.268 193.17C206.303 192.241 212.682 194.657 214.849 197.568C217.698 201.408 217.327 202.708 213.797 201.222C212.372 200.54 211.505 200.602 210.576 201.346C209.585 202.213 209.585 202.337 211.195 204.69C211.939 205.805 212.806 207.229 213.177 207.849C213.487 208.53 214.911 210.264 216.336 211.813C219.68 215.343 219.866 216.148 218.38 219.864C217.079 222.899 218.194 222.961 222.529 220.112C229.094 215.777 231.2 213.732 235.473 207.415C239.189 201.965 242.039 192.056 241.295 187.349C241.172 186.482 240.924 184.747 240.676 183.509C239.313 174.9 232.005 164.185 223.706 158.673C217.141 154.338 211.505 151.737 209.957 152.418ZM189.085 173.414C189.271 173.785 189.518 174.528 189.58 175.086C189.704 175.829 190.076 176.386 191.315 177.687C192.925 179.359 193.11 179.607 193.73 182.518C194.411 185.429 192.677 186.73 190.2 185.119C188.961 184.376 188.527 183.633 188.527 182.456C188.527 182.022 188.094 180.784 187.475 179.669C185.678 175.953 185.926 172.732 188.032 172.732C188.589 172.732 188.837 172.918 189.085 173.414ZM185.245 185.429C185.74 185.862 185.802 186.172 185.802 187.535C185.802 189.516 186.236 189.888 189.209 190.074C191.562 190.198 191.748 190.322 191.748 192.179C191.748 193.232 191.624 193.542 191.005 194.162C190.633 194.533 190.262 195.214 190.138 195.71C189.58 198.683 187.165 198.992 185.802 196.267C184.873 194.409 184.626 194.285 183.387 195.152C181.095 196.7 177.132 195.4 176.017 192.737C175.088 190.446 175.273 190.136 179.299 187.163C183.201 184.376 183.883 184.128 185.245 185.429Z" fill="#FFAE00"/>
</g>
<defs>
<linearGradient id="paint0_linear_266_1371" x1="186" y1="-16.9091" x2="186" y2="186" gradientUnits="userSpaceOnUse">
<stop stop-color="#F7EF00"/>
<stop offset="1" stop-color="#F78400"/>
</linearGradient>
<clipPath id="clip0_266_1371">
<rect width="372" height="372" fill="white"/>
</clipPath>
</defs>
</svg>
