<svg width="30" height="23" viewBox="0 0 30 23" fill="none" xmlns="http://www.w3.org/2000/svg">
  <path d="M17.7273 12.8179C16.5909 12.8179 15.625 12.4202 14.8295 11.6247C14.0341 10.8293 13.6364 9.86335 13.6364 8.72698C13.6364 7.59062 14.0341 6.62471 14.8295 5.82926C15.625 5.0338 16.5909 4.63608 17.7273 4.63608C18.8636 4.63608 19.8295 5.0338 20.625 5.82926C21.4205 6.62471 21.8182 7.59062 21.8182 8.72698C21.8182 9.86335 21.4205 10.8293 20.625 11.6247C19.8295 12.4202 18.8636 12.8179 17.7273 12.8179ZM8.18182 16.9088C7.43182 16.9088 6.78977 16.6418 6.25568 16.1077C5.72159 15.5736 5.45455 14.9315 5.45455 14.1815V3.27244C5.45455 2.52244 5.72159 1.88039 6.25568 1.3463C6.78977 0.812212 7.43182 0.545166 8.18182 0.545166H27.2727C28.0227 0.545166 28.6648 0.812212 29.1989 1.3463C29.733 1.88039 30 2.52244 30 3.27244V14.1815C30 14.9315 29.733 15.5736 29.1989 16.1077C28.6648 16.6418 28.0227 16.9088 27.2727 16.9088H8.18182ZM10.9091 14.1815H24.5455C24.5455 13.4315 24.8125 12.7895 25.3466 12.2554C25.8807 11.7213 26.5227 11.4543 27.2727 11.4543V5.99971C26.5227 5.99971 25.8807 5.73267 25.3466 5.19858C24.8125 4.66448 24.5455 4.02244 24.5455 3.27244H10.9091C10.9091 4.02244 10.642 4.66448 10.108 5.19858C9.57386 5.73267 8.93182 5.99971 8.18182 5.99971V11.4543C8.93182 11.4543 9.57386 11.7213 10.108 12.2554C10.642 12.7895 10.9091 13.4315 10.9091 14.1815ZM25.9091 22.3633H2.72727C1.97727 22.3633 1.33523 22.0963 0.801136 21.5622C0.267045 21.0281 0 20.3861 0 19.6361V4.63608H2.72727V19.6361H25.9091V22.3633Z" fill="#096F8E" />
</svg>