<svg width="23" height="32" viewBox="0 0 23 32" fill="none" xmlns="http://www.w3.org/2000/svg">
  <path d="M11.6632 22.8913C14.2476 20.8029 16.199 18.7928 17.5173 16.861C18.8356 14.9292 19.4948 13.1149 19.4948 11.418C19.4948 9.06856 18.7638 7.13677 17.3019 5.62266C15.84 4.10856 13.9604 3.3515 11.6632 3.3515C9.36592 3.3515 7.48634 4.10856 6.02445 5.62266C4.56255 7.13677 3.83161 9.06856 3.83161 11.418C3.83161 13.1149 4.49076 14.9292 5.80908 16.861C7.1274 18.7928 9.07876 20.8029 11.6632 22.8913ZM11.6632 26.8462C7.98234 24.1313 5.23476 21.4947 3.42045 18.9363C1.60613 16.378 0.698975 13.8719 0.698975 11.418C0.698975 8.15487 1.71708 5.47256 3.75329 3.37108C5.7895 1.26961 8.42613 0.218872 11.6632 0.218872C14.9002 0.218872 17.5369 1.26961 19.5731 3.37108C21.6093 5.47256 22.6274 8.15487 22.6274 11.418C22.6274 13.8719 21.7202 16.378 19.9059 18.9363C18.0916 21.4947 15.344 24.1313 11.6632 26.8462ZM11.6632 14.3157C12.5247 14.3157 13.2621 14.009 13.8756 13.3955C14.4891 12.782 14.7958 12.0446 14.7958 11.1831C14.7958 10.3216 14.4891 9.58414 13.8756 8.97066C13.2621 8.35719 12.5247 8.05045 11.6632 8.05045C10.8017 8.05045 10.0642 8.35719 9.45076 8.97066C8.83729 9.58414 8.53055 10.3216 8.53055 11.1831C8.53055 12.0446 8.83729 12.782 9.45076 13.3955C10.0642 14.009 10.8017 14.3157 11.6632 14.3157ZM0.698975 31.5452V28.4126H22.6274V31.5452H0.698975Z" fill="#096F8E" />
</svg>