<svg width="32" height="32" viewBox="0 0 32 32" fill="none" xmlns="http://www.w3.org/2000/svg">
  <path d="M3.13263 31.3263C2.27116 31.3263 1.53368 31.0196 0.92021 30.4061C0.306737 29.7926 0 29.0552 0 28.1937V6.26526C0 5.40379 0.306737 4.66632 0.92021 4.05284C1.53368 3.43937 2.27116 3.13263 3.13263 3.13263H4.69895V0H7.83158V3.13263H20.3621V0H23.4947V3.13263H25.0611C25.9225 3.13263 26.66 3.43937 27.2735 4.05284C27.8869 4.66632 28.1937 5.40379 28.1937 6.26526V14.0968H25.0611V12.5305H3.13263V28.1937H14.0968V31.3263H3.13263ZM3.13263 9.39789H25.0611V6.26526H3.13263V9.39789ZM17.2295 31.3263V26.5099L25.8834 17.8952C26.1183 17.6602 26.3794 17.4905 26.6665 17.3861C26.9537 17.2817 27.2408 17.2295 27.528 17.2295C27.8413 17.2295 28.1415 17.2882 28.4286 17.4057C28.7158 17.5232 28.9768 17.6994 29.2118 17.9343L30.6606 19.3832C30.8695 19.6181 31.0326 19.8792 31.1501 20.1663C31.2676 20.4535 31.3263 20.7406 31.3263 21.0278C31.3263 21.3149 31.2741 21.6086 31.1697 21.9088C31.0653 22.2091 30.8956 22.4766 30.6606 22.7116L22.0459 31.3263H17.2295ZM19.5789 28.9768H21.0669L25.8051 24.1996L25.1002 23.4556L24.3562 22.7507L19.5789 27.4888V28.9768ZM25.1002 23.4556L24.3562 22.7507L25.8051 24.1996L25.1002 23.4556Z" fill="#096F8E" />
</svg>