<svg width="32" height="34" viewBox="0 0 32 34" fill="none" xmlns="http://www.w3.org/2000/svg">
  <path d="M3.13263 9.72419H25.0611V6.59156H3.13263V9.72419ZM3.13263 31.6526C2.27116 31.6526 1.53368 31.3459 0.92021 30.7324C0.306737 30.1189 0 29.3815 0 28.52V6.59156C0 5.73008 0.306737 4.99261 0.92021 4.37914C1.53368 3.76566 2.27116 3.45893 3.13263 3.45893H4.69895V0.326294H7.83158V3.45893H20.3621V0.326294H23.4947V3.45893H25.0611C25.9225 3.45893 26.66 3.76566 27.2735 4.37914C27.8869 4.99261 28.1937 5.73008 28.1937 6.59156V15.4804C27.6977 15.2455 27.1886 15.0497 26.6665 14.893C26.1444 14.7364 25.6093 14.6189 25.0611 14.5406V12.8568H3.13263V28.52H13.0004C13.1832 29.0943 13.3985 29.6425 13.6465 30.1646C13.8945 30.6867 14.1882 31.1827 14.5276 31.6526H3.13263ZM23.4947 33.2189C21.328 33.2189 19.4811 32.4553 17.9539 30.9282C16.4267 29.401 15.6632 27.5541 15.6632 25.3873C15.6632 23.2206 16.4267 21.3737 17.9539 19.8465C19.4811 18.3193 21.328 17.5558 23.4947 17.5558C25.6615 17.5558 27.5084 18.3193 29.0356 19.8465C30.5627 21.3737 31.3263 23.2206 31.3263 25.3873C31.3263 27.5541 30.5627 29.401 29.0356 30.9282C27.5084 32.4553 25.6615 33.2189 23.4947 33.2189ZM26.1183 29.1073L27.2147 28.0109L24.2779 25.0741V20.6884H22.7116V25.7006L26.1183 29.1073Z" fill="#096F8E" />
</svg>