<svg width="40" height="45" viewBox="0 0 40 45" fill="none" xmlns="http://www.w3.org/2000/svg">
  <path d="M33.3333 44.4444C31.4815 44.4444 29.9074 43.7963 28.6111 42.5C27.3148 41.2037 26.6667 39.6296 26.6667 37.7778C26.6667 37.5556 26.7222 37.037 26.8333 36.2222L11.2222 27.1111C10.6296 27.6667 9.94444 28.1019 9.16667 28.4167C8.38889 28.7315 7.55556 28.8889 6.66667 28.8889C4.81482 28.8889 3.24074 28.2407 1.94444 26.9444C0.648148 25.6481 0 24.0741 0 22.2222C0 20.3704 0.648148 18.7963 1.94444 17.5C3.24074 16.2037 4.81482 15.5556 6.66667 15.5556C7.55556 15.5556 8.38889 15.713 9.16667 16.0278C9.94444 16.3426 10.6296 16.7778 11.2222 17.3333L26.8333 8.22222C26.7593 7.96296 26.713 7.71296 26.6944 7.47222C26.6759 7.23148 26.6667 6.96296 26.6667 6.66667C26.6667 4.81481 27.3148 3.24074 28.6111 1.94444C29.9074 0.648148 31.4815 0 33.3333 0C35.1852 0 36.7593 0.648148 38.0556 1.94444C39.3519 3.24074 40 4.81481 40 6.66667C40 8.51852 39.3519 10.0926 38.0556 11.3889C36.7593 12.6852 35.1852 13.3333 33.3333 13.3333C32.4444 13.3333 31.6111 13.1759 30.8333 12.8611C30.0556 12.5463 29.3704 12.1111 28.7778 11.5556L13.1667 20.6667C13.2407 20.9259 13.287 21.1759 13.3056 21.4167C13.3241 21.6574 13.3333 21.9259 13.3333 22.2222C13.3333 22.5185 13.3241 22.787 13.3056 23.0278C13.287 23.2685 13.2407 23.5185 13.1667 23.7778L28.7778 32.8889C29.3704 32.3333 30.0556 31.8981 30.8333 31.5833C31.6111 31.2685 32.4444 31.1111 33.3333 31.1111C35.1852 31.1111 36.7593 31.7593 38.0556 33.0556C39.3519 34.3518 40 35.9259 40 37.7778C40 39.6296 39.3519 41.2037 38.0556 42.5C36.7593 43.7963 35.1852 44.4444 33.3333 44.4444ZM33.3333 40C33.963 40 34.4907 39.787 34.9167 39.3611C35.3426 38.9352 35.5556 38.4074 35.5556 37.7778C35.5556 37.1481 35.3426 36.6204 34.9167 36.1944C34.4907 35.7685 33.963 35.5556 33.3333 35.5556C32.7037 35.5556 32.1759 35.7685 31.75 36.1944C31.3241 36.6204 31.1111 37.1481 31.1111 37.7778C31.1111 38.4074 31.3241 38.9352 31.75 39.3611C32.1759 39.787 32.7037 40 33.3333 40ZM6.66667 24.4444C7.2963 24.4444 7.82407 24.2315 8.25 23.8056C8.67593 23.3796 8.88889 22.8519 8.88889 22.2222C8.88889 21.5926 8.67593 21.0648 8.25 20.6389C7.82407 20.213 7.2963 20 6.66667 20C6.03704 20 5.50926 20.213 5.08333 20.6389C4.65741 21.0648 4.44444 21.5926 4.44444 22.2222C4.44444 22.8519 4.65741 23.3796 5.08333 23.8056C5.50926 24.2315 6.03704 24.4444 6.66667 24.4444ZM33.3333 8.88889C33.963 8.88889 34.4907 8.67593 34.9167 8.25C35.3426 7.82407 35.5556 7.2963 35.5556 6.66667C35.5556 6.03704 35.3426 5.50926 34.9167 5.08333C34.4907 4.65741 33.963 4.44444 33.3333 4.44444C32.7037 4.44444 32.1759 4.65741 31.75 5.08333C31.3241 5.50926 31.1111 6.03704 31.1111 6.66667C31.1111 7.2963 31.3241 7.82407 31.75 8.25C32.1759 8.67593 32.7037 8.88889 33.3333 8.88889Z" fill="#096F8E" />
</svg>